if (_typeface_js && _typeface_js.loadFace) _typeface_js.loadFace({"glyphs":{"0":{"ha":797,"x_min":0,"x_max":0,"o":"m 399 939 b 72 475 189 939 72 796 b 399 -11 72 231 149 -11 b 725 475 606 -11 725 138 b 399 939 725 717 642 939 z m 399 861 b 632 475 597 861 632 638 b 397 67 632 268 590 67 b 165 475 193 67 165 310 b 399 861 165 674 210 861 z "},"1":{"ha":531,"x_min":0,"x_max":0,"o":"m 353 0 l 353 835 l 363 925 l 285 925 l 42 832 l 42 744 l 260 836 l 264 836 l 260 813 l 260 0 z "},"2":{"ha":775,"x_min":0,"x_max":0,"o":"m 694 79 l 210 79 l 549 425 b 685 682 618 496 685 571 b 408 939 685 814 590 939 b 100 732 244 939 144 838 l 176 706 b 397 861 229 808 304 861 b 592 679 518 861 592 774 b 483 475 592 603 543 538 l 108 85 l 108 0 l 694 0 z "},"3":{"ha":753,"x_min":0,"x_max":0,"o":"m 65 781 l 136 743 b 354 861 214 821 265 861 b 536 708 464 861 536 796 b 331 524 536 607 440 542 l 228 507 l 242 431 b 394 454 349 451 378 454 b 571 296 476 454 571 407 b 163 50 571 147 417 50 b 88 54 131 50 106 53 l 93 -28 b 163 -33 110 -31 129 -33 b 663 292 426 -33 663 74 b 478 511 663 418 578 497 l 478 519 b 629 718 557 543 629 611 b 363 939 629 854 513 939 b 65 781 210 939 121 851 z "},"4":{"ha":789,"x_min":0,"x_max":0,"o":"m 483 925 l 46 313 l 46 213 l 482 213 l 482 0 l 574 0 l 574 213 l 754 213 l 754 288 l 574 288 l 574 925 z m 483 800 l 489 799 l 482 701 l 482 288 l 117 288 z "},"5":{"ha":785,"x_min":0,"x_max":0,"o":"m 199 50 b 122 54 167 50 142 53 l 128 -28 b 199 -33 146 -31 164 -33 b 694 335 465 -33 694 64 b 431 613 694 489 615 613 b 211 525 356 613 303 592 l 235 846 l 667 846 l 667 925 l 157 925 l 125 457 l 178 435 b 410 532 278 515 349 532 b 601 333 565 532 601 426 b 199 50 601 139 454 50 z "},"6":{"ha":792,"x_min":0,"x_max":0,"o":"m 539 961 b 240 847 410 961 311 918 b 86 378 126 731 86 539 b 194 60 86 221 126 121 b 400 -11 249 13 319 -11 b 713 297 574 -11 713 94 b 428 590 713 483 589 590 b 179 465 325 590 236 540 b 303 785 197 607 238 715 b 539 878 363 847 442 878 b 624 874 574 878 604 875 l 619 954 b 539 961 601 958 579 961 z m 186 394 b 406 510 229 463 311 510 b 619 293 538 510 619 432 b 408 67 619 144 532 67 b 247 126 340 67 286 89 b 178 317 200 174 178 240 b 186 394 178 350 179 372 z "},"7":{"ha":688,"x_min":0,"x_max":0,"o":"m 49 925 l 49 846 l 560 846 b 163 0 464 749 213 415 l 267 0 b 661 850 329 504 594 779 l 661 925 z "},"8":{"ha":819,"x_min":0,"x_max":0,"o":"m 278 485 b 89 261 189 472 89 386 b 410 -11 89 71 236 -11 b 731 261 583 -11 731 71 b 540 485 731 386 631 472 l 540 490 b 703 696 603 503 703 578 b 410 939 703 819 596 939 b 117 696 224 939 117 819 b 278 490 117 578 215 503 z m 208 692 b 410 861 208 779 278 861 b 613 692 542 861 613 779 b 411 522 613 599 546 522 b 208 692 275 522 208 599 z m 411 67 b 186 263 254 67 186 144 b 410 447 186 365 243 447 b 635 263 576 447 635 365 b 411 67 635 144 565 67 z "},"9":{"ha":792,"x_min":0,"x_max":0,"o":"m 253 -33 b 550 79 382 -33 479 8 b 706 550 665 197 706 388 b 597 867 706 706 665 806 b 390 939 543 915 472 939 b 79 631 218 939 79 832 b 364 338 79 444 203 338 b 613 463 467 338 554 386 b 488 143 594 321 554 213 b 251 50 429 81 350 50 b 168 54 218 50 188 53 l 172 -28 b 253 -33 190 -31 211 -33 z m 606 533 b 386 418 563 465 479 418 b 172 635 254 418 172 494 b 382 861 172 783 260 861 b 543 800 451 861 504 839 b 614 610 592 754 614 688 b 606 533 614 578 611 556 z "}," ":{"ha":318,"x_min":0,"x_max":0,"o":""},"A":{"ha":861,"x_min":0,"x_max":0,"o":"m 711 0 l 808 0 l 485 981 l 379 981 l 50 0 l 139 0 l 218 242 l 633 242 z m 611 319 l 243 319 l 404 811 l 422 882 l 433 882 l 450 811 z "},"B":{"ha":907,"x_min":0,"x_max":0,"o":"m 139 981 l 139 0 l 469 0 b 835 282 678 0 835 54 b 617 525 835 431 724 510 l 617 533 b 785 749 728 558 785 642 b 458 981 785 922 614 981 z m 232 903 l 447 903 b 683 736 599 903 683 838 b 447 554 683 622 606 554 l 232 554 z m 232 478 l 478 478 b 736 285 643 478 736 399 b 499 78 736 140 646 78 l 232 78 z "},"C":{"ha":911,"x_min":0,"x_max":0,"o":"m 804 140 b 528 64 736 97 653 64 b 175 490 275 64 175 275 b 531 918 175 722 286 918 b 803 839 654 918 735 882 l 825 924 b 533 996 760 965 663 996 b 79 486 240 996 79 764 b 525 -14 79 194 238 -14 b 825 58 658 -14 760 17 z "},"D":{"ha":1010,"x_min":0,"x_max":0,"o":"m 139 981 l 139 0 l 439 0 b 922 497 708 0 922 132 b 439 981 922 843 710 981 z m 449 903 b 825 497 706 903 825 722 b 449 78 825 249 701 78 l 232 78 l 232 903 z "},"E":{"ha":886,"x_min":0,"x_max":0,"o":"m 139 981 l 139 0 l 792 0 l 792 78 l 232 78 l 232 472 l 715 472 l 715 550 l 232 550 l 232 903 l 778 903 l 778 981 z "},"F":{"ha":797,"x_min":0,"x_max":0,"o":"m 139 981 l 139 0 l 232 0 l 232 472 l 683 472 l 683 550 l 232 550 l 232 903 l 744 903 l 744 981 z "},"G":{"ha":982,"x_min":0,"x_max":0,"o":"m 851 938 b 560 996 785 975 667 996 b 79 488 257 996 79 774 b 547 -14 79 226 225 -14 b 871 61 651 -14 803 15 l 871 489 l 533 489 l 533 413 l 788 413 l 788 108 b 551 64 711 71 626 64 b 175 492 292 64 175 261 b 556 918 175 738 310 918 b 829 853 660 918 760 890 z "},"H":{"ha":981,"x_min":0,"x_max":0,"o":"m 139 981 l 139 0 l 232 0 l 232 458 l 749 458 l 749 0 l 842 0 l 842 981 l 749 981 l 749 535 l 232 535 l 232 981 z "},"I":{"ha":371,"x_min":0,"x_max":0,"o":"m 139 981 l 139 0 l 232 0 l 232 981 z "},"J":{"ha":660,"x_min":0,"x_max":0,"o":"m 51 57 b 274 -14 106 17 192 -14 b 533 242 449 -14 533 94 l 533 981 l 443 981 l 443 257 b 271 64 443 153 401 64 b 74 142 201 64 126 99 z "},"K":{"ha":924,"x_min":0,"x_max":0,"o":"m 139 981 l 139 0 l 232 0 l 232 329 l 435 533 l 806 0 l 921 0 l 499 599 l 867 981 l 753 981 l 232 433 l 232 981 z "},"L":{"ha":719,"x_min":0,"x_max":0,"o":"m 139 981 l 139 0 l 708 0 l 708 78 l 232 78 l 232 981 z "},"M":{"ha":1218,"x_min":0,"x_max":0,"o":"m 139 981 l 139 0 l 229 0 l 229 742 l 224 901 l 235 901 l 567 0 l 651 0 l 983 901 l 993 901 l 989 742 l 989 0 l 1079 0 l 1079 981 l 926 981 l 617 131 l 608 131 l 300 981 z "},"N":{"ha":997,"x_min":0,"x_max":0,"o":"m 139 0 l 228 0 l 228 722 l 215 894 l 226 894 l 296 742 l 733 0 l 858 0 l 858 981 l 769 981 l 769 257 l 781 85 l 771 85 l 701 239 l 268 981 l 139 981 z "},"O":{"ha":1046,"x_min":0,"x_max":0,"o":"m 522 996 b 79 492 274 996 79 828 b 522 -14 79 157 267 -14 b 967 492 769 -14 967 160 b 522 996 967 829 772 996 z m 522 918 b 871 492 751 918 871 738 b 522 64 871 229 751 64 b 175 492 296 64 175 247 b 522 918 175 750 297 918 z "},"P":{"ha":867,"x_min":0,"x_max":0,"o":"m 232 903 l 493 903 b 669 840 579 903 635 879 b 718 696 703 804 718 753 b 663 536 718 628 701 574 b 493 483 628 501 575 483 l 232 483 z m 139 981 l 139 0 l 232 0 l 232 406 l 482 406 b 733 482 614 406 683 433 b 813 696 786 533 813 608 b 743 894 813 775 790 844 b 482 981 693 949 613 981 z "},"Q":{"ha":1046,"x_min":0,"x_max":0,"o":"m 836 -90 l 924 -71 l 799 79 b 967 492 901 163 967 301 b 522 996 967 829 772 996 b 79 492 274 996 79 828 b 522 -14 79 157 264 -14 b 732 35 597 -14 669 3 z m 522 918 b 871 492 751 918 871 738 b 747 142 871 336 829 215 l 549 385 l 482 338 l 681 97 b 522 64 635 75 582 64 b 175 492 296 64 175 247 b 522 918 175 750 297 918 z "},"R":{"ha":924,"x_min":0,"x_max":0,"o":"m 139 981 l 139 0 l 232 0 l 232 421 l 513 421 l 775 0 l 882 0 l 608 435 b 826 704 760 464 826 563 b 756 896 826 781 803 847 b 507 981 706 949 631 981 z m 232 903 l 508 903 b 732 704 664 903 732 822 b 515 497 732 565 660 497 l 232 497 z "},"S":{"ha":760,"x_min":0,"x_max":0,"o":"m 658 950 b 408 996 589 974 508 996 b 78 731 214 996 78 907 b 365 458 78 533 249 490 b 613 242 471 429 613 383 b 354 57 613 111 493 57 b 86 117 267 57 164 78 l 64 33 b 344 -21 143 -4 254 -21 b 707 260 574 -21 707 92 b 400 544 707 432 568 496 b 171 743 293 575 171 608 b 401 919 171 872 278 919 b 638 869 489 919 574 897 z "},"T":{"ha":774,"x_min":0,"x_max":0,"o":"m 32 981 l 32 903 l 339 903 l 339 0 l 435 0 l 435 903 l 742 903 l 742 981 z "},"U":{"ha":950,"x_min":0,"x_max":0,"o":"m 124 981 l 124 324 b 476 -14 124 163 164 -14 b 826 324 789 -14 826 163 l 826 981 l 733 981 l 733 333 b 475 64 733 194 718 64 b 217 333 231 64 217 194 l 217 981 z "},"V":{"ha":825,"x_min":0,"x_max":0,"o":"m 35 981 l 360 0 l 464 0 l 793 981 l 692 981 l 439 175 l 421 104 l 410 104 l 393 175 l 139 981 z "},"W":{"ha":1301,"x_min":0,"x_max":0,"o":"m 61 981 l 303 0 l 428 0 l 626 810 l 640 892 l 653 892 l 667 810 l 869 0 l 996 0 l 1242 981 l 1140 981 l 954 171 l 940 89 l 929 89 l 914 171 l 711 981 l 586 981 l 385 171 l 369 89 l 358 89 l 344 171 l 161 981 z "},"X":{"ha":839,"x_min":0,"x_max":0,"o":"m 163 981 l 44 981 l 361 511 l 38 0 l 144 0 l 415 449 l 679 0 l 800 0 l 474 511 l 793 981 l 688 981 l 419 571 z "},"Y":{"ha":826,"x_min":0,"x_max":0,"o":"m 17 981 l 367 357 l 367 0 l 458 0 l 458 357 l 811 981 l 708 981 l 418 442 l 129 981 z "},"Z":{"ha":854,"x_min":0,"x_max":0,"o":"m 115 981 l 115 903 l 664 903 l 65 67 l 65 0 l 789 0 l 789 78 l 181 78 l 782 914 l 782 981 z "},"a":{"ha":733,"x_min":0,"x_max":0,"o":"m 660 0 b 621 179 643 29 621 86 l 621 471 b 369 725 621 658 531 725 b 107 660 249 725 149 688 l 140 593 b 367 650 199 622 281 650 b 533 481 485 650 533 597 l 533 424 b 65 190 172 421 65 329 b 289 -11 65 63 154 -11 b 540 122 392 -11 483 33 b 572 0 543 63 561 19 z m 306 60 b 154 197 204 60 154 111 b 533 368 154 281 204 354 l 533 249 b 306 60 533 156 446 60 z "},"b":{"ha":792,"x_min":0,"x_max":0,"o":"m 197 0 l 207 107 b 435 -11 265 14 350 -11 b 717 361 661 -11 717 199 b 428 725 717 560 632 725 b 213 601 329 725 261 681 l 213 1022 l 125 1022 l 125 0 z m 418 650 b 626 360 588 650 626 504 b 414 64 626 221 592 64 b 213 231 269 64 213 171 l 213 482 b 418 650 213 540 275 650 z "},"c":{"ha":672,"x_min":0,"x_max":0,"o":"m 579 119 b 400 64 529 85 469 64 b 164 351 217 64 164 206 b 399 650 164 525 239 650 b 579 594 471 650 529 628 l 603 669 b 397 725 549 704 482 725 b 74 350 185 725 74 569 b 394 -11 74 142 175 -11 b 603 44 483 -11 549 10 z "},"d":{"ha":790,"x_min":0,"x_max":0,"o":"m 665 0 l 665 1022 l 578 1022 l 578 607 b 364 725 531 690 460 725 b 72 357 153 725 72 549 b 353 -11 72 188 133 -11 b 583 114 442 -11 522 24 l 593 0 z m 374 64 b 164 356 203 64 164 211 b 375 650 164 494 199 650 b 578 482 521 650 578 542 l 578 231 b 374 64 578 171 514 64 z "},"e":{"ha":751,"x_min":0,"x_max":0,"o":"m 675 344 b 679 410 678 376 679 390 b 394 725 679 593 579 725 b 74 346 194 725 74 567 b 411 -11 74 142 178 -11 b 661 72 515 -11 593 19 l 626 142 b 411 64 560 93 496 64 b 164 344 222 64 165 201 z m 392 653 b 590 413 524 653 594 549 l 167 413 b 392 653 185 563 268 653 z "},"f":{"ha":382,"x_min":0,"x_max":0,"o":"m 386 1024 b 304 1036 375 1031 349 1036 b 131 844 193 1036 131 953 l 131 714 l 13 714 l 13 646 l 131 646 l 131 0 l 218 0 l 218 646 l 385 646 l 385 714 l 218 714 l 218 849 b 314 961 218 924 246 961 b 374 954 333 961 360 958 z "},"g":{"ha":790,"x_min":0,"x_max":0,"o":"m 665 714 l 593 714 l 583 601 b 368 725 528 692 460 725 b 72 358 151 725 72 547 b 354 -11 72 186 138 -11 b 578 108 446 -11 526 26 l 578 -10 b 381 -242 578 -186 499 -242 b 156 -186 281 -242 213 -217 l 132 -261 b 379 -317 206 -299 289 -317 b 665 -19 581 -317 665 -194 z m 374 64 b 164 354 204 64 164 208 b 375 650 164 493 199 650 b 578 482 521 650 578 542 l 578 231 b 374 64 578 171 514 64 z "},"h":{"ha":781,"x_min":0,"x_max":0,"o":"m 672 0 l 672 461 b 610 656 672 553 651 613 b 433 725 568 699 510 725 b 213 596 342 725 264 693 l 213 1022 l 125 1022 l 125 0 l 213 0 l 213 482 b 411 650 213 556 283 650 b 542 601 472 650 514 631 b 585 475 574 569 585 525 l 585 0 z "},"i":{"ha":338,"x_min":0,"x_max":0,"o":"m 118 1022 l 118 896 l 219 896 l 219 1022 z m 125 714 l 125 0 l 213 0 l 213 714 z "},"j":{"ha":338,"x_min":0,"x_max":0,"o":"m 118 1022 l 118 896 l 219 896 l 219 1022 z m -11 -306 b 39 -308 1 -307 18 -308 b 213 -117 150 -308 213 -225 l 213 714 l 125 714 l 125 -121 b 29 -235 125 -196 97 -235 b -4 -232 18 -235 6 -233 z "},"k":{"ha":707,"x_min":0,"x_max":0,"o":"m 125 1022 l 125 0 l 213 0 l 213 267 l 332 378 l 585 0 l 696 0 l 392 436 l 682 714 l 571 714 l 213 353 l 213 1022 z "},"l":{"ha":338,"x_min":0,"x_max":0,"o":"m 125 1022 l 125 0 l 213 0 l 213 1022 z "},"m":{"ha":1186,"x_min":0,"x_max":0,"o":"m 643 0 l 643 465 b 829 650 643 567 724 650 b 986 486 949 650 986 571 l 986 0 l 1075 0 l 1075 471 b 1015 661 1075 564 1053 621 b 847 725 975 703 921 725 b 633 589 761 725 683 690 b 419 725 599 693 514 725 b 207 589 340 725 257 692 l 193 714 l 111 714 l 125 589 l 125 0 l 213 0 l 213 482 b 399 650 213 556 282 650 b 556 486 518 650 556 571 l 556 0 z "},"n":{"ha":781,"x_min":0,"x_max":0,"o":"m 672 0 l 672 461 b 610 656 672 553 651 613 b 433 725 568 699 510 725 b 207 589 342 725 258 689 l 193 714 l 111 714 l 125 589 l 125 0 l 213 0 l 213 482 b 411 650 213 556 283 650 b 543 601 472 650 515 631 b 585 475 574 569 585 525 l 585 0 z "},"o":{"ha":775,"x_min":0,"x_max":0,"o":"m 389 725 b 74 358 188 725 74 563 b 389 -11 74 138 193 -11 b 701 358 590 -11 701 158 b 389 725 701 574 583 725 z m 388 650 b 611 358 547 650 611 513 b 388 64 611 197 544 64 b 164 358 228 64 164 201 b 388 650 164 519 231 650 z "},"p":{"ha":792,"x_min":0,"x_max":0,"o":"m 111 714 l 125 589 l 125 -306 l 213 -306 l 213 103 b 435 -11 261 17 346 -11 b 717 364 657 -11 717 199 b 428 725 717 560 632 725 b 207 596 326 725 264 683 l 193 714 z m 418 650 b 626 357 588 650 626 504 b 407 64 626 213 590 64 b 213 231 276 64 213 167 l 213 482 b 418 650 213 542 275 650 z "},"q":{"ha":790,"x_min":0,"x_max":0,"o":"m 593 714 l 583 601 b 364 725 528 692 461 725 b 72 358 153 725 72 547 b 353 -11 72 188 138 -11 b 578 108 446 -11 526 26 l 578 -306 l 665 -306 l 665 714 z m 381 64 b 164 353 204 64 164 203 b 375 650 164 494 199 650 b 578 482 521 650 578 542 l 578 231 b 381 64 578 168 507 64 z "},"r":{"ha":467,"x_min":0,"x_max":0,"o":"m 454 711 b 385 719 428 717 406 719 b 207 589 306 719 247 664 l 193 714 l 111 714 l 125 590 l 125 0 l 213 0 l 213 478 b 378 626 213 553 272 626 b 443 618 397 626 414 625 z "},"s":{"ha":615,"x_min":0,"x_max":0,"o":"m 68 22 b 281 -21 94 7 189 -21 b 551 192 422 -21 551 44 b 346 399 551 328 440 371 b 164 543 236 431 164 458 b 318 654 164 621 231 654 b 503 614 386 654 447 636 l 522 688 b 324 725 472 711 393 725 b 81 535 181 725 81 658 b 267 336 81 418 181 364 b 465 179 382 300 465 271 b 279 50 465 85 375 50 b 86 96 199 50 126 75 z "},"t":{"ha":433,"x_min":0,"x_max":0,"o":"m 149 904 l 139 714 l 22 714 l 22 646 l 139 646 l 139 154 b 297 -11 139 64 182 -11 b 392 0 350 -11 372 -8 l 397 67 l 310 67 b 226 168 240 67 226 110 l 226 646 l 392 646 l 392 714 l 226 714 l 226 904 z "},"u":{"ha":781,"x_min":0,"x_max":0,"o":"m 111 714 l 111 253 b 174 57 111 161 133 100 b 351 -11 215 15 275 -11 b 576 125 442 -11 525 25 l 590 0 l 672 0 l 658 125 l 658 714 l 571 714 l 571 232 b 372 64 571 158 500 64 b 240 113 313 64 268 83 b 199 239 210 143 199 189 l 199 714 z "},"v":{"ha":628,"x_min":0,"x_max":0,"o":"m 8 714 l 269 0 l 360 0 l 621 714 l 526 714 l 335 157 l 319 103 l 314 103 l 300 157 l 108 714 z "},"w":{"ha":982,"x_min":0,"x_max":0,"o":"m 26 714 l 228 0 l 315 0 l 475 542 l 488 603 l 494 603 l 508 542 l 667 0 l 756 0 l 960 714 l 864 714 l 725 189 l 711 128 l 704 128 l 690 189 l 539 714 l 444 714 l 293 189 l 278 128 l 272 128 l 260 189 l 122 714 z "},"x":{"ha":631,"x_min":0,"x_max":0,"o":"m 140 714 l 35 714 l 263 367 l 22 0 l 122 0 l 313 308 l 496 0 l 603 0 l 367 371 l 592 714 l 494 714 l 314 426 z "},"y":{"ha":632,"x_min":0,"x_max":0,"o":"m 4 714 l 278 -11 l 239 -117 b 78 -233 210 -200 178 -233 l 85 -300 b 138 -308 96 -307 115 -308 b 325 -103 236 -308 288 -208 l 624 714 l 528 714 l 339 154 l 325 100 l 319 100 l 306 154 l 101 714 z "},"z":{"ha":615,"x_min":0,"x_max":0,"o":"m 85 714 l 85 646 l 456 646 l 51 56 l 51 0 l 569 0 l 569 68 l 154 68 l 558 658 l 558 714 z "},"&":{"ha":949,"x_min":0,"x_max":0,"o":"m 901 65 b 708 197 833 85 776 118 b 903 501 785 293 849 404 l 811 521 b 656 257 767 426 708 332 b 418 538 554 378 492 453 b 651 792 549 590 651 663 b 424 996 651 921 547 996 b 182 774 282 996 182 904 b 289 553 182 678 236 611 b 49 250 151 493 49 406 b 343 -15 49 82 165 -15 b 654 128 478 -15 571 40 b 888 -12 731 46 794 1 z m 354 58 b 144 257 228 58 144 132 b 335 499 144 371 215 453 l 601 185 b 354 58 529 104 454 58 z m 271 782 b 422 928 271 865 333 928 b 568 783 501 928 568 872 b 375 583 568 686 492 638 b 271 782 308 661 271 719 z "},".":{"ha":268,"x_min":0,"x_max":0,"o":"m 76 149 l 76 0 l 192 0 l 192 149 z "},",":{"ha":286,"x_min":0,"x_max":0,"o":"m 138 149 l 26 -186 l 101 -186 l 254 149 z "},":":{"ha":351,"x_min":0,"x_max":0,"o":"m 118 149 l 118 0 l 233 0 l 233 149 z m 118 714 l 118 565 l 233 565 l 233 714 z "},";":{"ha":360,"x_min":0,"x_max":0,"o":"m 164 149 l 54 -186 l 128 -186 l 281 149 z m 118 714 l 118 565 l 233 565 l 233 714 z "},"!":{"ha":392,"x_min":0,"x_max":0,"o":"m 158 981 l 158 839 l 182 322 l 242 322 l 264 839 l 264 981 z m 154 149 l 154 0 l 269 0 l 269 149 z "},"?":{"ha":614,"x_min":0,"x_max":0,"o":"m 122 825 b 321 917 179 886 251 917 b 481 771 397 917 481 876 b 354 579 481 694 435 653 b 225 322 257 481 225 446 l 306 322 b 422 538 306 436 358 475 b 564 782 513 624 564 681 b 326 992 564 917 456 992 b 71 871 218 992 119 938 z m 213 149 l 213 0 l 328 0 l 328 149 z "},"¡":{"ha":392,"x_min":0,"x_max":0,"o":"m 240 0 l 240 140 l 218 658 l 158 658 l 135 140 l 135 0 z m 244 832 l 244 981 l 129 981 l 129 832 z "},"¿":{"ha":614,"x_min":0,"x_max":0,"o":"m 501 156 b 303 64 444 93 372 64 b 143 210 226 64 143 104 b 269 401 143 285 189 328 b 399 658 367 500 399 535 l 318 658 b 201 442 318 544 265 506 b 60 199 111 357 60 299 b 297 -11 60 64 168 -11 b 553 110 406 -11 504 43 z m 411 832 l 411 981 l 296 981 l 296 832 z "},"'":{"ha":246,"x_min":0,"x_max":0,"o":"m 97 981 l 90 868 l 78 647 l 138 647 l 186 868 l 210 981 z "},"\"":{"ha":454,"x_min":0,"x_max":0,"o":"m 97 981 l 90 868 l 78 647 l 138 647 l 186 868 l 210 981 z m 304 981 l 297 868 l 285 647 l 346 647 l 393 868 l 417 981 z "},"‘":{"ha":286,"x_min":0,"x_max":0,"o":"m 147 647 l 254 981 l 175 981 l 35 647 z "},"’":{"ha":286,"x_min":0,"x_max":0,"o":"m 139 981 l 32 647 l 111 647 l 251 981 z "},"“":{"ha":526,"x_min":0,"x_max":0,"o":"m 388 647 l 496 981 l 417 981 l 275 647 z m 147 647 l 254 981 l 175 981 l 35 647 z "},"”":{"ha":526,"x_min":0,"x_max":0,"o":"m 139 981 l 32 647 l 111 647 l 251 981 z m 379 981 l 272 647 l 351 647 l 492 981 z "},"‚":{"ha":286,"x_min":0,"x_max":0,"o":"m 140 149 l 33 -185 l 113 -185 l 253 149 z "},"„":{"ha":526,"x_min":0,"x_max":0,"o":"m 140 149 l 33 -185 l 113 -185 l 253 149 z m 381 149 l 274 -185 l 353 -185 l 493 149 z "},"‹":{"ha":414,"x_min":0,"x_max":0,"o":"m 214 601 l 53 428 l 53 357 l 214 182 l 307 182 l 121 392 l 307 601 z "},"›":{"ha":414,"x_min":0,"x_max":0,"o":"m 106 601 l 292 392 l 106 182 l 199 182 l 361 357 l 361 428 l 200 601 z "},"«":{"ha":681,"x_min":0,"x_max":0,"o":"m 214 601 l 53 428 l 53 357 l 214 182 l 307 182 l 121 392 l 307 601 z m 481 601 l 319 428 l 319 357 l 481 182 l 574 182 l 388 392 l 574 601 z "},"»":{"ha":681,"x_min":0,"x_max":0,"o":"m 372 601 l 558 392 l 372 182 l 465 182 l 628 357 l 628 428 l 467 601 z m 106 601 l 292 392 l 106 182 l 199 182 l 361 357 l 361 428 l 200 601 z "},"-":{"ha":426,"x_min":0,"x_max":0,"o":"m 64 431 l 64 346 l 363 346 l 363 431 z "},"–":{"ha":792,"x_min":0,"x_max":0,"o":"m 56 421 l 56 353 l 736 353 l 736 421 z "},"—":{"ha":1389,"x_min":0,"x_max":0,"o":"m 56 421 l 56 353 l 1333 353 l 1333 421 z "},"_":{"ha":792,"x_min":0,"x_max":0,"o":"m -7 -229 l -7 -297 l 799 -297 l 799 -229 z "},"…":{"ha":1389,"x_min":0,"x_max":0,"o":"m 224 149 l 224 0 l 340 0 l 340 149 z m 636 149 l 636 0 l 751 0 l 751 149 z m 1047 149 l 1047 0 l 1164 0 l 1164 149 z "},"(":{"ha":472,"x_min":0,"x_max":0,"o":"m 443 -221 l 443 -204 b 174 413 307 -100 174 150 b 443 1025 174 675 307 921 l 443 1042 l 368 1042 b 85 413 244 950 85 711 b 368 -221 85 114 244 -129 z "},")":{"ha":472,"x_min":0,"x_max":0,"o":"m 104 -221 b 388 413 228 -129 388 114 b 104 1042 388 711 228 950 l 29 1042 l 29 1025 b 299 413 167 921 299 675 b 29 -204 299 150 167 -100 l 29 -221 z "},"[":{"ha":481,"x_min":0,"x_max":0,"o":"m 106 1042 l 106 -221 l 396 -221 l 396 -156 l 186 -156 l 186 975 l 396 975 l 396 1042 z "},"]":{"ha":481,"x_min":0,"x_max":0,"o":"m 85 1042 l 85 975 l 294 975 l 294 -156 l 85 -156 l 85 -221 l 375 -221 l 375 1042 z "},"{":{"ha":550,"x_min":0,"x_max":0,"o":"m 482 -221 l 482 -156 l 411 -156 b 304 -115 368 -156 329 -142 b 272 -31 283 -93 272 -62 b 278 36 272 -6 274 10 l 310 219 b 314 272 311 231 314 261 b 199 415 314 313 260 379 l 199 424 b 314 571 258 457 314 526 b 307 632 314 586 311 613 l 278 788 b 272 849 274 807 272 824 b 303 933 272 883 282 911 b 411 975 329 961 368 975 l 482 975 l 482 1042 l 389 1042 b 242 979 342 1042 282 1019 b 188 856 208 947 188 901 b 190 818 188 840 189 826 l 226 618 b 232 576 231 590 232 583 b 135 460 232 517 192 460 l 53 460 l 53 379 l 135 379 b 231 261 193 379 232 319 b 226 221 231 254 229 240 l 190 3 b 188 -35 189 -8 188 -18 b 243 -161 188 -81 207 -128 b 389 -221 282 -200 342 -221 z "},"}":{"ha":550,"x_min":0,"x_max":0,"o":"m 69 -221 l 161 -221 b 308 -161 208 -221 268 -200 b 363 -35 343 -128 363 -81 b 360 3 363 -18 361 -8 l 324 221 b 319 261 321 240 319 254 b 415 379 319 319 357 379 l 497 379 l 497 460 l 415 460 b 319 576 358 460 318 517 b 324 618 319 583 319 590 l 360 818 b 363 856 361 826 363 840 b 310 979 363 901 342 947 b 161 1042 268 1019 210 1042 l 69 1042 l 69 975 l 139 975 b 247 933 182 975 221 961 b 279 849 268 911 279 883 b 272 788 279 824 276 807 l 243 632 b 236 571 239 613 236 586 b 351 424 236 526 292 457 l 351 415 b 238 272 290 379 238 313 b 240 219 238 261 239 231 l 272 36 b 279 -31 276 10 279 -6 b 246 -115 279 -62 267 -93 b 139 -156 221 -142 183 -156 l 69 -156 z "},"\\":{"ha":586,"x_min":0,"x_max":0,"o":"m 0 981 l 508 -160 l 586 -160 l 81 981 z "},"/":{"ha":586,"x_min":0,"x_max":0,"o":"m 506 981 l 0 -160 l 78 -160 l 586 981 z "},"*":{"ha":553,"x_min":0,"x_max":0,"o":"m 79 869 l 51 788 l 106 768 l 240 754 l 243 740 l 144 651 l 110 603 l 181 551 l 214 599 l 271 721 l 283 721 l 339 599 l 372 551 l 444 603 l 410 650 l 313 739 l 315 751 l 447 767 l 503 786 l 475 868 l 421 851 l 306 785 l 296 794 l 322 924 l 322 981 l 235 981 l 235 924 l 260 794 l 251 785 l 133 853 z "},"•":{"ha":540,"x_min":0,"x_max":0,"o":"m 271 571 b 90 392 161 571 90 501 b 271 211 90 282 161 211 b 450 392 381 211 450 282 b 271 571 450 501 381 571 z "},"@":{"ha":1443,"x_min":0,"x_max":0,"o":"m 974 681 l 935 557 b 754 706 919 635 853 706 b 399 293 601 706 399 529 b 600 51 399 125 497 51 b 840 182 685 51 769 96 b 985 50 839 94 901 50 b 1349 503 1149 50 1349 226 b 797 996 1349 779 1129 996 b 108 335 433 996 108 735 b 722 -268 108 -69 446 -268 b 1158 -165 886 -268 1075 -211 l 1133 -108 b 725 -200 1054 -151 874 -200 b 185 336 476 -200 185 -24 b 797 928 185 693 472 928 b 1278 500 1086 928 1278 743 b 1004 117 1278 269 1125 117 b 908 207 944 117 908 150 b 914 240 908 218 910 229 l 1054 681 z m 621 125 b 485 303 546 125 485 182 b 753 629 485 499 642 629 b 908 475 839 629 896 556 l 838 247 b 621 125 764 165 689 125 z "},"©":{"ha":1247,"x_min":0,"x_max":0,"o":"m 613 -97 b 1181 464 925 -97 1181 151 b 613 1022 1181 775 925 1022 b 43 464 300 1022 43 775 b 613 -97 43 151 300 -97 z m 833 713 b 626 760 775 740 700 760 b 321 465 440 760 321 631 b 631 188 321 296 461 188 b 838 228 728 188 786 204 l 808 296 b 631 261 763 276 711 261 b 407 465 508 261 407 340 b 628 685 407 588 494 685 b 804 646 689 685 750 672 z m 613 -31 b 119 464 343 -31 119 190 b 613 957 119 733 343 957 b 1104 464 883 957 1104 733 b 613 -31 1104 190 883 -31 z "},"℗":{"ha":1247,"x_min":0,"x_max":0,"o":"m 1181 465 b 610 1022 1181 775 924 1022 b 43 465 299 1022 43 775 b 610 -97 43 153 299 -97 b 1181 465 924 -97 1181 153 z m 488 453 l 488 664 l 699 664 b 822 560 750 664 822 644 b 703 453 822 475 754 453 z m 704 378 b 908 561 799 378 908 428 b 679 739 908 711 769 739 l 403 739 l 403 213 l 488 213 l 488 378 z m 610 -31 b 119 465 340 -31 119 193 b 610 957 119 736 340 957 b 1104 465 881 957 1104 738 b 610 -31 1104 192 881 -31 z "},"™":{"ha":911,"x_min":0,"x_max":0,"o":"m 49 981 l 49 936 l 167 936 l 167 583 l 219 583 l 219 936 l 340 936 l 340 981 z m 425 981 l 425 583 l 475 583 l 475 904 l 474 938 l 478 938 l 488 904 l 592 658 l 650 658 l 753 904 l 763 938 l 768 938 l 767 904 l 767 583 l 817 583 l 817 981 l 733 981 l 624 715 l 618 715 l 508 981 z "},"℠":{"ha":935,"x_min":0,"x_max":0,"o":"m 53 626 b 217 574 96 590 161 574 b 372 696 306 574 372 618 b 226 810 372 767 311 796 b 114 881 151 822 114 839 b 213 946 114 918 147 946 b 319 910 249 946 285 938 l 351 949 b 207 992 322 974 265 992 b 61 874 118 992 61 946 b 215 760 61 801 119 776 b 321 692 289 747 321 731 b 217 618 321 650 288 618 b 86 665 168 618 117 635 z m 447 583 l 497 583 l 497 904 l 496 938 l 500 938 l 510 904 l 614 658 l 672 658 l 775 904 l 785 938 l 790 938 l 789 904 l 789 583 l 839 583 l 839 981 l 756 981 l 646 715 l 640 715 l 531 981 l 447 981 z "},"®":{"ha":728,"x_min":0,"x_max":0,"o":"m 354 360 b 682 678 538 360 682 499 b 354 996 682 850 538 996 b 31 678 172 996 31 850 b 354 360 31 499 172 360 z m 276 526 l 276 658 l 385 658 l 460 526 l 518 526 l 439 663 b 513 751 483 675 513 711 b 401 847 513 807 465 847 l 225 847 l 225 526 z m 401 804 b 463 751 433 804 463 783 b 401 701 463 725 436 701 l 276 701 l 276 804 z m 354 400 b 74 678 196 400 74 524 b 354 956 74 829 196 956 b 640 678 514 956 640 829 b 354 400 640 524 514 400 z "},"¶":{"ha":946,"x_min":0,"x_max":0,"o":"m 349 981 b 167 913 269 981 210 957 b 93 714 124 867 93 800 b 186 483 94 614 133 533 b 349 426 226 447 269 426 l 406 426 l 406 -306 l 499 -306 l 499 904 l 713 904 l 713 -306 l 804 -306 l 804 981 z "},"†":{"ha":608,"x_min":0,"x_max":0,"o":"m 261 981 l 261 924 l 285 785 l 276 778 l 151 800 l 94 800 l 94 713 l 151 713 l 276 738 l 283 728 l 261 267 l 261 208 l 349 208 l 349 267 l 325 728 l 332 738 l 456 713 l 513 713 l 513 800 l 454 800 l 332 778 l 325 785 l 349 924 l 349 981 z "},"‡":{"ha":608,"x_min":0,"x_max":0,"o":"m 261 981 l 261 924 l 286 786 l 276 776 l 151 800 l 94 800 l 94 713 l 151 713 l 276 738 l 286 726 l 261 639 l 261 551 l 286 468 l 276 453 l 151 478 l 94 478 l 94 390 l 151 390 l 276 414 l 286 406 l 261 267 l 261 208 l 349 208 l 349 267 l 324 406 l 333 414 l 456 390 l 513 390 l 513 478 l 454 478 l 333 453 l 324 467 l 350 553 l 350 640 l 325 725 l 333 738 l 456 713 l 513 713 l 513 800 l 454 800 l 333 776 l 324 786 l 349 924 l 349 981 z "},"ℓ":{"ha":792,"x_min":0,"x_max":0,"o":"m 589 114 b 428 64 561 97 508 64 b 315 165 351 64 315 94 l 315 317 b 607 758 539 465 607 596 b 424 996 607 932 529 996 b 228 744 319 996 228 935 l 228 340 l 122 263 l 122 172 l 228 251 l 228 163 b 407 -11 228 44 299 -11 b 589 43 474 -11 544 10 z m 315 406 l 315 754 b 418 921 315 888 361 921 b 521 750 482 921 521 879 b 315 406 521 610 476 519 z "},"℮":{"ha":1103,"x_min":0,"x_max":0,"o":"m 250 628 b 261 654 250 636 256 646 b 553 783 310 729 457 783 b 844 654 674 783 785 736 b 853 628 851 646 853 636 l 853 435 b 842 426 853 428 846 426 l 260 426 b 250 435 256 426 250 428 z m 250 375 b 260 386 250 381 256 386 l 1014 386 b 553 822 1014 651 800 822 b 90 406 325 822 90 660 b 553 -11 89 160 322 -11 b 928 160 690 -11 832 42 l 863 160 b 553 28 783 71 669 28 b 261 154 450 28 344 69 b 250 192 250 165 250 178 z "},"°":{"ha":525,"x_min":0,"x_max":0,"o":"m 263 943 b 60 713 129 943 60 864 b 263 471 60 593 110 471 b 465 714 396 471 465 561 b 263 943 465 839 411 943 z m 263 881 b 392 713 371 881 392 790 b 263 532 392 624 368 532 b 132 714 150 532 132 643 b 263 881 132 801 158 881 z "},"$":{"ha":792,"x_min":0,"x_max":0,"o":"m 640 847 b 432 890 581 867 514 888 l 432 1036 l 361 1036 l 361 889 b 115 668 215 876 115 801 b 369 440 115 507 261 468 b 590 279 489 410 590 378 b 364 133 590 178 488 133 b 126 190 286 133 196 151 l 103 107 b 356 56 174 71 272 56 l 361 56 l 361 -135 l 432 -135 l 432 60 b 685 296 593 81 685 171 b 404 526 685 443 560 486 b 207 679 299 556 207 582 b 399 815 207 775 296 815 b 619 767 478 815 560 793 z "},"¢":{"ha":792,"x_min":0,"x_max":0,"o":"m 436 -11 b 644 44 525 -11 590 10 l 619 119 b 442 64 569 85 511 64 b 201 351 258 64 201 206 b 440 650 201 525 281 650 b 619 594 513 650 569 628 l 644 669 b 506 719 606 694 560 711 l 539 925 l 467 925 l 436 725 b 115 350 225 724 115 568 b 315 7 115 185 179 53 l 276 -224 l 349 -224 l 385 -7 b 436 -11 401 -10 418 -11 z "},"€":{"ha":792,"x_min":0,"x_max":0,"o":"m 58 540 l 181 540 b 176 454 178 513 176 483 b 178 393 176 433 176 413 l 58 393 l 58 325 l 185 325 b 500 -14 213 122 314 -14 b 728 31 575 -14 674 4 l 706 103 b 501 64 654 81 586 64 b 282 325 372 64 306 178 l 603 325 l 603 393 l 275 393 b 272 468 272 417 272 443 b 275 540 272 492 272 517 l 603 540 l 603 608 l 283 608 b 517 863 308 754 378 863 b 706 822 579 863 656 846 l 728 894 b 519 940 676 921 589 940 b 189 608 328 940 222 803 l 58 608 z "},"£":{"ha":792,"x_min":0,"x_max":0,"o":"m 538 510 l 285 510 b 224 696 253 571 224 631 b 425 861 224 797 296 861 b 644 801 499 861 574 840 l 678 867 b 429 939 624 911 526 939 b 131 697 235 939 131 836 b 186 510 131 628 156 568 l 40 510 l 40 442 l 222 442 b 279 263 253 383 279 326 b 111 74 279 185 243 74 b 40 82 86 74 61 78 l 40 10 b 113 -6 56 -1 81 -6 b 279 71 179 -6 235 18 b 521 -10 367 19 433 -10 b 704 44 600 -10 676 21 l 704 122 b 524 72 631 89 583 72 b 321 131 436 72 378 99 b 363 274 350 174 363 222 b 318 442 363 335 343 389 l 538 442 z "},"¥":{"ha":792,"x_min":0,"x_max":0,"o":"m 72 925 l 226 608 l 49 608 l 49 540 l 261 540 l 329 393 l 49 393 l 49 325 l 351 325 l 351 0 l 443 0 l 443 325 l 742 325 l 742 393 l 463 393 l 532 540 l 742 540 l 742 608 l 567 608 l 722 925 l 622 925 l 401 436 l 181 925 z "},"ƒ":{"ha":792,"x_min":0,"x_max":0,"o":"m 215 507 l 215 439 l 376 439 l 278 -119 b 161 -232 265 -194 229 -232 b 103 -225 142 -232 117 -229 l 79 -294 b 158 -307 88 -301 113 -307 b 365 -115 269 -307 346 -224 l 464 439 l 669 439 l 669 507 l 475 507 l 517 743 b 633 856 531 818 565 856 b 692 849 654 856 678 853 l 717 918 b 638 931 707 925 682 931 b 429 739 525 931 449 847 l 388 507 z "},"§":{"ha":875,"x_min":0,"x_max":0,"o":"m 200 -176 b 422 -214 261 -200 353 -214 b 686 -28 590 -214 686 -139 b 614 117 686 36 657 83 b 792 335 714 146 792 218 b 488 604 792 513 625 572 b 269 756 353 635 269 665 b 432 868 269 832 332 868 b 642 828 503 868 576 850 l 661 901 b 439 939 601 925 508 939 b 186 753 278 939 186 864 b 258 606 186 688 215 640 b 81 390 157 578 81 506 b 385 121 81 211 247 153 b 603 -31 519 90 603 60 b 429 -144 603 -107 536 -144 b 219 -103 358 -144 285 -126 z m 407 540 b 706 332 589 494 706 460 b 526 164 706 224 622 171 b 464 183 492 175 485 178 b 167 392 282 231 167 265 b 342 560 167 499 249 551 b 407 540 376 549 385 546 z "},"#":{"ha":1069,"x_min":0,"x_max":0,"o":"m 222 -56 l 299 -56 l 347 217 l 638 217 l 589 -56 l 665 -56 l 714 217 l 938 217 l 938 293 l 728 293 l 793 656 l 1007 656 l 1007 732 l 807 732 l 851 981 l 778 981 l 732 732 l 440 732 l 485 981 l 411 981 l 365 732 l 140 732 l 140 656 l 351 656 l 285 293 l 69 293 l 69 217 l 271 217 z m 426 656 l 718 656 l 651 293 l 361 293 z "},"%":{"ha":1214,"x_min":0,"x_max":0,"o":"m 835 925 l 308 0 l 382 0 l 908 925 z m 282 933 b 65 676 139 933 65 847 b 282 408 65 543 118 408 b 499 678 425 408 499 508 b 282 933 499 817 440 933 z m 282 871 b 425 676 403 871 425 765 b 282 469 425 575 399 469 b 138 678 157 469 138 594 b 282 871 138 781 167 871 z m 931 517 b 714 260 788 517 714 431 b 931 -8 714 126 767 -8 b 1147 261 1074 -8 1147 92 b 931 517 1147 400 1089 517 z m 931 454 b 1074 260 1051 454 1074 349 b 931 53 1074 158 1047 53 b 786 261 806 53 786 178 b 931 454 786 364 815 454 z "},"‰":{"ha":1725,"x_min":0,"x_max":0,"o":"m 835 925 l 308 0 l 382 0 l 908 925 z m 282 933 b 65 676 139 933 65 847 b 282 408 65 543 118 408 b 499 678 425 408 499 508 b 282 933 499 817 440 933 z m 282 871 b 425 676 403 871 425 765 b 282 469 425 575 399 469 b 138 678 157 469 138 594 b 282 871 138 781 167 871 z m 931 517 b 714 260 788 517 714 431 b 931 -8 714 126 767 -8 b 1147 261 1074 -8 1147 92 b 931 517 1147 400 1089 517 z m 931 454 b 1074 260 1051 454 1074 349 b 931 53 1074 158 1047 53 b 786 261 806 53 786 178 b 931 454 786 364 815 454 z m 1442 519 b 1225 263 1299 519 1225 433 b 1442 -6 1225 129 1278 -6 b 1658 264 1585 -6 1658 94 b 1442 519 1658 403 1600 519 z m 1442 457 b 1586 263 1563 457 1586 351 b 1442 56 1586 161 1560 56 b 1299 263 1318 56 1299 181 b 1442 457 1299 365 1326 457 z "},"¤":{"ha":792,"x_min":0,"x_max":0,"o":"m 75 -78 l 158 -78 l 242 89 b 394 56 283 67 335 56 b 557 93 460 56 514 69 l 644 -78 l 728 -78 l 615 136 b 693 354 667 188 693 260 l 693 493 b 613 715 693 589 668 663 l 725 925 l 643 925 l 556 756 b 394 792 513 779 458 792 b 244 760 336 792 286 781 l 160 925 l 78 925 l 186 722 b 99 493 122 669 99 585 l 99 354 b 183 126 99 254 126 178 z m 394 131 b 239 185 324 131 274 150 b 185 374 201 224 185 285 l 185 474 b 239 663 185 563 201 624 b 394 717 274 697 324 717 b 550 664 465 717 517 697 b 606 474 589 625 607 563 l 606 374 b 543 183 606 292 588 225 b 394 131 510 151 461 131 z "},"⁽":{"ha":301,"x_min":0,"x_max":0,"o":"m 286 213 l 286 225 b 122 604 201 288 122 439 b 286 978 122 765 201 915 l 286 990 l 235 990 b 53 604 157 935 53 789 b 235 213 53 414 157 268 z "},"⁾":{"ha":301,"x_min":0,"x_max":0,"o":"m 67 213 b 247 604 143 268 247 414 b 67 990 247 789 143 935 l 15 990 l 15 978 b 179 604 99 915 179 765 b 15 225 179 439 99 288 l 15 213 z "},"+":{"ha":792,"x_min":0,"x_max":0,"o":"m 351 774 l 351 429 l 10 429 l 10 346 l 351 346 l 351 0 l 440 0 l 440 346 l 782 346 l 782 429 l 440 429 l 440 774 z "},"−":{"ha":792,"x_min":0,"x_max":0,"o":"m 6 428 l 6 346 l 786 346 l 786 428 z "},"×":{"ha":792,"x_min":0,"x_max":0,"o":"m 100 744 l 39 683 l 335 385 l 39 90 l 99 31 l 393 328 l 692 29 l 754 92 l 456 389 l 751 685 l 692 743 l 397 447 z "},"÷":{"ha":792,"x_min":0,"x_max":0,"o":"m 72 428 l 72 346 l 719 346 l 719 428 z m 339 144 l 339 0 l 453 0 l 453 144 z m 339 774 l 339 628 l 453 628 l 453 774 z "},"=":{"ha":792,"x_min":0,"x_max":0,"o":"m 39 601 l 39 519 l 753 519 l 753 601 z m 39 253 l 39 172 l 753 172 l 753 253 z "},"≈":{"ha":792,"x_min":0,"x_max":0,"o":"m 39 467 b 235 553 99 519 169 553 b 549 468 388 553 393 468 b 753 551 615 468 693 501 l 753 642 b 560 554 693 588 626 554 b 246 642 406 554 399 642 b 39 554 179 642 99 607 z m 39 133 b 235 219 99 186 169 219 b 549 135 388 219 393 135 b 753 218 615 135 693 168 l 753 308 b 560 222 693 256 626 222 b 246 308 406 222 399 308 b 39 222 179 308 99 274 z "},"≠":{"ha":792,"x_min":0,"x_max":0,"o":"m 753 172 l 753 253 l 356 253 l 513 519 l 753 519 l 753 601 l 560 601 l 661 774 l 582 774 l 481 601 l 39 601 l 39 519 l 433 519 l 276 253 l 39 253 l 39 172 l 229 172 l 129 0 l 208 0 l 308 172 z "},"±":{"ha":792,"x_min":0,"x_max":0,"o":"m 39 550 l 39 468 l 351 468 l 351 181 l 440 181 l 440 468 l 753 468 l 753 550 l 440 550 l 440 836 l 351 836 l 351 550 z m 39 81 l 39 0 l 753 0 l 753 81 z "},"<":{"ha":792,"x_min":0,"x_max":0,"o":"m 39 417 l 39 357 l 753 15 l 753 113 l 253 340 l 149 379 l 149 393 l 253 436 l 753 663 l 753 761 z "},">":{"ha":792,"x_min":0,"x_max":0,"o":"m 39 761 l 39 663 l 539 436 l 642 393 l 642 379 l 539 340 l 39 113 l 39 15 l 753 357 l 753 417 z "},"≤":{"ha":792,"x_min":0,"x_max":0,"o":"m 39 539 l 39 481 l 753 186 l 753 283 l 264 467 l 161 503 l 161 515 l 264 556 l 753 738 l 753 836 z m 39 81 l 39 0 l 753 0 l 753 81 z "},"≥":{"ha":792,"x_min":0,"x_max":0,"o":"m 39 81 l 39 0 l 753 0 l 753 81 z m 39 836 l 39 738 l 526 556 l 631 515 l 631 503 l 526 467 l 39 283 l 39 186 l 753 481 l 753 539 z "},"¬":{"ha":792,"x_min":0,"x_max":0,"o":"m 39 613 l 39 532 l 654 532 l 654 160 l 742 160 l 742 613 z "},"·":{"ha":321,"x_min":0,"x_max":0,"o":"m 92 476 l 92 299 l 229 299 l 229 476 z "},"~":{"ha":792,"x_min":0,"x_max":0,"o":"m 121 321 b 261 410 164 375 215 410 b 519 272 358 410 401 272 b 733 400 589 272 669 321 l 668 446 b 531 356 625 390 576 356 b 272 496 431 356 386 496 b 56 363 201 496 118 444 z "},"^":{"ha":792,"x_min":0,"x_max":0,"o":"m 357 925 l 14 281 l 118 281 l 332 717 l 381 821 l 393 821 l 443 717 l 657 281 l 761 281 l 415 925 z "},"¦":{"ha":536,"x_min":0,"x_max":0,"o":"m 215 1063 l 215 569 l 319 569 l 319 1063 z m 215 360 l 215 -132 l 319 -132 l 319 360 z "},"|":{"ha":536,"x_min":0,"x_max":0,"o":"m 215 1167 l 215 -236 l 319 -236 l 319 1167 z "},"µ":{"ha":804,"x_min":0,"x_max":0,"o":"m 590 125 b 624 0 593 71 614 18 l 711 0 b 672 179 694 29 672 86 l 672 714 l 585 714 l 585 232 b 386 64 585 158 514 64 b 213 226 256 64 213 153 l 213 714 l 125 714 l 125 -306 l 214 -306 l 214 -37 l 204 67 l 210 71 b 365 -11 238 18 303 -11 b 590 125 456 -11 539 25 z "},"π":{"ha":863,"x_min":0,"x_max":0,"o":"m 575 172 b 606 0 575 83 594 28 l 701 0 b 663 186 685 31 663 90 l 663 619 l 767 619 l 767 714 l 82 714 l 82 619 l 192 619 l 192 0 l 279 0 l 279 619 l 575 619 z "},"Δ":{"ha":979,"x_min":0,"x_max":0,"o":"m 425 981 l 81 74 l 81 0 l 897 0 l 897 76 l 554 981 z m 486 897 l 494 897 l 526 803 l 799 81 l 181 81 l 454 803 z "},"Ω":{"ha":1075,"x_min":0,"x_max":0,"o":"m 111 0 l 474 0 l 474 65 b 192 492 297 119 192 281 b 539 918 192 750 314 918 b 885 492 761 918 885 750 b 601 65 885 281 779 119 l 601 0 l 965 0 l 965 82 l 803 82 l 767 79 l 767 85 b 981 492 882 174 981 286 b 538 996 981 828 786 996 b 96 492 290 996 96 828 b 310 85 96 286 194 174 l 310 79 l 274 82 l 111 82 z "},"∏":{"ha":1083,"x_min":0,"x_max":0,"o":"m 64 981 l 64 888 l 189 888 l 189 -160 l 282 -160 l 282 888 l 801 888 l 801 -160 l 894 -160 l 894 888 l 1019 888 l 1019 981 z "},"∑":{"ha":1029,"x_min":0,"x_max":0,"o":"m 121 981 l 121 858 l 611 447 l 650 419 l 650 408 l 611 382 l 121 -36 l 121 -160 l 921 -160 l 921 -74 l 283 -74 l 199 -79 l 199 -65 l 282 -21 l 746 374 l 746 450 l 282 840 l 199 886 l 199 899 l 283 893 l 921 893 l 921 981 z "},"∫":{"ha":522,"x_min":0,"x_max":0,"o":"m 393 1083 b 272 1029 346 1083 303 1063 b 215 883 236 993 215 940 l 215 -62 b 108 -187 215 -129 168 -187 l 38 -187 l 38 -251 b 75 -264 50 -261 60 -264 l 131 -264 b 251 -211 176 -264 219 -244 b 308 -64 286 -174 308 -122 l 308 882 b 415 1008 308 950 356 1008 l 485 1008 l 485 1071 b 447 1083 472 1079 464 1083 z "},"∂":{"ha":792,"x_min":0,"x_max":0,"o":"m 308 931 b 275 919 294 931 286 928 l 275 849 l 304 847 b 503 775 376 846 454 828 b 590 503 557 719 581 633 l 564 522 b 363 590 526 558 456 590 b 99 303 211 590 99 478 b 397 -11 99 81 226 -11 b 586 56 471 -11 536 10 b 686 376 651 117 686 222 b 563 833 686 593 646 744 b 317 931 506 892 413 931 z m 579 413 b 593 321 589 388 593 357 b 525 115 593 233 572 161 b 394 67 494 85 451 67 b 192 293 263 67 192 146 b 390 510 192 432 263 510 b 579 413 481 510 544 469 z "},"∞":{"ha":1383,"x_min":0,"x_max":0,"o":"m 332 650 b 100 419 201 650 100 538 l 100 358 b 332 128 100 240 201 128 l 394 128 b 594 235 451 128 511 153 l 692 333 l 789 235 b 988 128 872 153 935 128 l 1050 128 b 1283 358 1182 128 1283 240 l 1283 419 b 1050 650 1283 538 1182 650 l 988 650 b 789 543 932 650 872 625 l 692 444 l 594 543 b 394 650 511 625 451 650 z m 839 483 b 997 568 907 554 958 568 l 1049 568 b 1197 422 1132 568 1197 496 l 1197 356 b 1049 210 1197 281 1132 210 l 997 210 b 839 296 958 210 907 225 l 749 390 z m 186 422 b 335 568 186 496 251 568 l 386 568 b 543 483 425 568 476 554 l 633 389 l 543 296 b 386 210 476 225 425 210 l 335 210 b 186 356 251 210 186 281 z "},"◊":{"ha":874,"x_min":0,"x_max":0,"o":"m 401 925 l 76 508 l 76 418 l 401 0 l 472 0 l 797 418 l 797 508 l 472 925 z m 429 819 l 443 819 l 714 474 l 714 454 l 443 106 l 429 106 l 158 454 l 158 474 z "},"√":{"ha":1017,"x_min":0,"x_max":0,"o":"m 42 714 l 42 631 l 228 631 l 463 0 l 536 0 l 1004 1274 l 906 1274 l 510 153 l 308 714 z "},"⁰":{"ha":529,"x_min":0,"x_max":0,"o":"m 264 933 b 61 643 132 933 61 836 b 264 343 61 490 111 343 b 467 644 396 343 467 444 b 264 933 467 796 413 933 z m 264 871 b 393 643 374 871 393 743 b 264 404 393 521 368 404 b 135 644 151 404 135 546 b 264 871 135 763 161 871 z "},"¹":{"ha":339,"x_min":0,"x_max":0,"o":"m 47 883 l 47 818 l 142 858 l 144 858 l 142 842 l 142 350 l 215 350 l 215 867 l 221 925 l 160 925 z "},"²":{"ha":519,"x_min":0,"x_max":0,"o":"m 447 411 l 154 411 l 353 607 b 442 771 404 657 442 706 b 263 933 442 861 375 933 b 64 803 153 933 92 867 l 125 779 b 256 872 156 840 200 872 b 367 768 326 872 367 821 b 288 633 367 719 329 676 l 68 415 l 68 350 l 447 350 z "},"³":{"ha":506,"x_min":0,"x_max":0,"o":"m 51 831 l 107 801 b 239 875 154 850 188 875 b 344 788 303 875 344 838 b 224 681 344 728 288 690 l 156 669 l 167 613 b 264 626 239 625 254 626 b 365 538 314 626 365 600 b 119 399 365 451 272 399 b 69 401 99 399 81 400 l 74 338 b 119 333 83 335 97 333 b 440 536 294 333 440 400 b 325 668 440 615 383 661 l 325 674 b 418 796 374 689 418 729 b 244 935 418 883 338 935 b 51 831 146 935 85 879 z "},"⁴":{"ha":513,"x_min":0,"x_max":0,"o":"m 303 925 l 40 549 l 40 478 l 306 478 l 306 350 l 379 350 l 379 478 l 474 478 l 474 538 l 379 538 l 379 925 z m 307 835 l 311 833 l 306 772 l 306 538 l 97 538 z "},"⁵":{"ha":506,"x_min":0,"x_max":0,"o":"m 133 399 b 82 401 111 399 96 400 l 86 338 b 133 333 97 335 110 333 b 443 561 304 333 443 394 b 281 733 443 660 390 733 b 147 681 236 733 201 721 l 161 863 l 424 863 l 426 925 l 103 925 l 82 631 l 124 613 b 265 672 182 660 222 672 b 371 558 347 672 371 614 b 133 399 371 450 285 399 z "},"⁶":{"ha":518,"x_min":0,"x_max":0,"o":"m 343 944 b 58 588 128 944 58 765 b 261 343 58 408 143 343 b 463 538 376 343 463 411 b 282 719 463 653 385 719 b 131 646 224 719 167 693 b 343 881 147 803 217 881 b 404 878 364 881 390 879 b 403 939 403 903 403 921 b 343 944 389 943 369 944 z m 133 588 b 264 660 156 628 206 660 b 389 533 340 660 389 614 b 264 403 389 449 338 403 b 131 547 176 403 131 467 b 133 588 131 563 131 574 z "},"⁷":{"ha":464,"x_min":0,"x_max":0,"o":"m 46 925 l 46 863 l 353 863 b 115 350 286 786 146 596 l 196 350 b 433 869 235 651 379 813 l 433 925 z "},"⁸":{"ha":536,"x_min":0,"x_max":0,"o":"m 175 649 b 63 513 126 643 63 596 b 268 343 63 397 151 343 b 474 513 383 343 474 397 b 360 649 474 596 410 643 l 360 654 b 457 781 396 661 457 704 b 268 931 457 858 389 931 b 79 781 147 931 79 858 b 175 654 79 704 139 661 z m 150 774 b 268 874 150 826 192 874 b 386 774 344 874 386 826 b 268 676 386 719 346 676 b 150 774 189 676 150 719 z m 268 401 b 138 517 178 401 138 447 b 268 621 138 576 172 621 b 400 517 364 621 400 576 b 268 401 400 447 357 401 z "},"⁹":{"ha":518,"x_min":0,"x_max":0,"o":"m 175 333 b 460 692 390 333 460 514 b 257 936 460 869 375 936 b 56 740 143 936 56 867 b 236 560 56 625 133 560 b 388 633 294 560 351 586 b 175 399 371 476 301 399 b 114 400 154 399 128 399 b 115 340 115 383 115 357 b 175 333 129 335 149 333 z m 385 692 b 256 619 363 650 313 619 b 131 746 178 619 131 664 b 254 876 131 831 181 876 b 389 732 342 876 389 813 b 385 692 389 715 388 704 z "},"₀":{"ha":529,"x_min":0,"x_max":0,"o":"m 264 410 b 61 119 132 410 61 313 b 264 -181 61 -33 111 -181 b 467 121 396 -181 467 -79 b 264 410 467 272 413 410 z m 264 347 b 393 119 374 347 393 219 b 264 -119 393 -3 368 -119 b 135 121 151 -119 135 22 b 264 347 135 239 161 347 z "},"₁":{"ha":339,"x_min":0,"x_max":0,"o":"m 47 360 l 47 294 l 142 335 l 144 335 l 142 318 l 142 -174 l 215 -174 l 215 343 l 221 401 l 160 401 z "},"₂":{"ha":519,"x_min":0,"x_max":0,"o":"m 447 -112 l 154 -112 l 353 83 b 442 247 404 133 442 182 b 263 410 442 338 375 410 b 64 279 153 410 92 343 l 125 256 b 256 349 156 317 200 349 b 367 244 326 349 367 297 b 288 110 367 196 329 153 l 68 -108 l 68 -174 l 447 -174 z "},"₃":{"ha":506,"x_min":0,"x_max":0,"o":"m 51 306 l 107 276 b 239 350 154 325 188 350 b 344 263 303 350 344 313 b 224 156 344 203 288 165 l 156 144 l 167 88 b 264 101 239 100 254 101 b 365 13 314 101 365 75 b 119 -126 365 -74 272 -126 b 69 -124 99 -126 81 -125 l 74 -187 b 119 -192 83 -190 97 -192 b 440 11 294 -192 440 -125 b 325 143 440 90 383 136 l 325 149 b 418 271 374 164 418 204 b 244 410 418 358 338 410 b 51 306 146 410 85 354 z "},"₄":{"ha":513,"x_min":0,"x_max":0,"o":"m 303 401 l 40 25 l 40 -46 l 306 -46 l 306 -174 l 379 -174 l 379 -46 l 474 -46 l 474 14 l 379 14 l 379 401 z m 307 311 l 311 310 l 306 249 l 306 14 l 97 14 z "},"₅":{"ha":506,"x_min":0,"x_max":0,"o":"m 133 -126 b 82 -124 111 -126 96 -125 l 86 -187 b 133 -192 97 -190 110 -192 b 443 36 304 -192 443 -131 b 281 208 443 135 390 208 b 147 156 236 208 201 196 l 161 339 l 424 339 l 426 401 l 103 401 l 82 106 l 124 88 b 265 147 182 135 222 147 b 371 33 347 147 371 89 b 133 -126 371 -75 285 -126 z "},"₆":{"ha":518,"x_min":0,"x_max":0,"o":"m 343 421 b 58 64 128 421 58 242 b 261 -181 58 -115 143 -181 b 463 14 376 -181 463 -112 b 282 196 463 129 385 196 b 131 122 224 196 167 169 b 343 357 147 279 217 357 b 404 354 364 357 390 356 b 403 415 403 379 403 397 b 343 421 389 419 369 421 z m 133 64 b 264 136 156 104 206 136 b 389 10 340 136 389 90 b 264 -121 389 -75 338 -121 b 131 24 176 -121 131 -57 b 133 64 131 39 131 50 z "},"₇":{"ha":464,"x_min":0,"x_max":0,"o":"m 46 401 l 46 339 l 353 339 b 115 -174 286 263 146 72 l 196 -174 b 433 346 235 128 379 289 l 433 401 z "},"₈":{"ha":536,"x_min":0,"x_max":0,"o":"m 175 125 b 63 -11 126 119 63 72 b 268 -181 63 -126 151 -181 b 474 -11 383 -181 474 -126 b 360 125 474 72 410 119 l 360 131 b 457 257 396 138 457 181 b 268 407 457 335 389 407 b 79 257 147 407 79 335 b 175 131 79 181 139 138 z m 150 250 b 268 350 150 303 192 350 b 386 250 344 350 386 303 b 268 153 386 196 346 153 b 150 250 189 153 150 196 z m 268 -122 b 138 -7 178 -122 138 -76 b 268 97 138 53 172 97 b 400 -7 364 97 400 53 b 268 -122 400 -76 357 -122 z "},"₉":{"ha":518,"x_min":0,"x_max":0,"o":"m 175 -193 b 460 165 390 -193 460 -12 b 257 410 460 343 375 410 b 56 214 143 410 56 340 b 236 33 56 99 133 33 b 388 107 294 33 351 60 b 175 -128 371 -50 301 -128 b 114 -126 154 -128 128 -128 b 115 -186 115 -143 115 -169 b 175 -193 129 -192 149 -193 z m 385 165 b 256 93 363 124 313 93 b 131 219 178 93 131 138 b 254 350 131 304 181 350 b 389 206 342 350 389 286 b 385 165 389 189 388 178 z "},"½":{"ha":1092,"x_min":0,"x_max":0,"o":"m 47 883 l 47 818 l 142 858 l 144 858 l 142 842 l 142 350 l 215 350 l 215 867 l 221 925 l 160 925 z m 683 925 l 157 0 l 231 0 l 757 925 z m 696 429 b 826 522 728 490 772 522 b 939 418 897 522 939 471 b 858 283 939 369 901 326 l 640 65 l 640 0 l 1019 0 l 1019 61 l 726 61 l 925 257 b 1014 421 976 307 1014 356 b 835 583 1014 511 946 583 b 636 453 725 583 664 517 z "},"¼":{"ha":1029,"x_min":0,"x_max":0,"o":"m 47 883 l 47 818 l 142 858 l 144 858 l 142 842 l 142 350 l 215 350 l 215 867 l 221 925 l 160 925 z m 683 925 l 157 0 l 231 0 l 757 925 z m 821 575 l 558 199 l 558 128 l 824 128 l 824 0 l 897 0 l 897 128 l 990 128 l 990 188 l 897 188 l 897 575 z m 825 485 l 829 483 l 824 422 l 824 188 l 615 188 z "},"¾":{"ha":1196,"x_min":0,"x_max":0,"o":"m 107 801 b 239 875 154 850 188 875 b 344 788 303 875 344 838 b 224 681 344 728 288 690 l 156 669 l 167 613 b 264 626 239 625 254 626 b 365 538 314 626 365 600 b 119 399 365 451 272 399 b 69 401 99 399 81 400 l 74 338 b 119 333 83 335 97 333 b 440 536 294 333 440 400 b 325 668 440 615 383 661 l 325 674 b 418 796 374 689 418 729 b 244 935 418 883 338 935 b 51 831 146 935 85 879 z m 850 925 l 324 0 l 396 0 l 922 925 z m 988 575 l 725 199 l 725 128 l 989 128 l 989 0 l 1064 0 l 1064 128 l 1157 128 l 1157 188 l 1064 188 l 1064 575 z m 992 485 l 994 483 l 989 422 l 989 188 l 782 188 z "},"⅓":{"ha":1078,"x_min":0,"x_max":0,"o":"m 47 883 l 47 818 l 142 858 l 144 858 l 142 842 l 142 350 l 215 350 l 215 867 l 221 925 l 160 925 z m 683 925 l 157 0 l 231 0 l 757 925 z m 681 450 b 813 524 728 499 761 524 b 918 436 876 524 918 486 b 797 329 918 376 861 339 l 729 318 l 740 261 b 838 275 813 274 828 275 b 939 186 888 275 939 249 b 693 47 939 100 846 47 b 642 50 671 47 654 49 l 647 -14 b 692 -18 657 -17 671 -18 b 1013 185 868 -18 1013 49 b 897 317 1013 264 957 310 l 897 322 b 990 444 946 338 990 378 b 818 583 990 532 911 583 b 625 479 719 583 658 528 z "},"⅔":{"ha":1258,"x_min":0,"x_max":0,"o":"m 447 411 l 154 411 l 353 607 b 442 771 404 657 442 706 b 263 933 442 861 375 933 b 64 803 153 933 92 867 l 125 779 b 256 872 156 840 200 872 b 367 768 326 872 367 821 b 288 633 367 719 329 676 l 68 415 l 68 350 l 447 350 z m 864 925 l 338 0 l 410 0 l 936 925 z m 804 479 l 861 450 b 993 524 908 499 940 524 b 1099 436 1056 524 1099 486 b 976 329 1099 376 1042 339 l 910 318 l 921 261 b 1018 275 992 274 1008 275 b 1119 186 1067 275 1119 249 b 874 47 1119 100 1025 47 b 822 50 851 47 835 49 l 826 -14 b 872 -18 838 -17 851 -18 b 1193 185 1049 -18 1193 49 b 1078 317 1193 264 1138 310 l 1078 322 b 1171 444 1126 338 1171 378 b 999 583 1171 532 1090 583 b 804 479 899 583 839 528 z "},"⅛":{"ha":1108,"x_min":0,"x_max":0,"o":"m 47 883 l 47 818 l 142 858 l 144 858 l 142 842 l 142 350 l 215 350 l 215 867 l 221 925 l 160 925 z m 682 925 l 156 0 l 229 0 l 756 925 z m 747 299 b 633 163 699 293 633 246 b 840 -7 633 47 722 -7 b 1046 163 956 -7 1046 47 b 932 299 1046 246 981 293 l 932 304 b 1028 431 968 311 1028 354 b 840 581 1028 508 961 581 b 651 431 718 581 651 508 b 747 304 651 354 711 311 z m 722 424 b 840 524 722 476 763 524 b 958 424 917 524 958 476 b 840 326 958 369 918 326 b 722 424 761 326 722 369 z m 708 167 b 840 271 708 226 744 271 b 971 167 936 271 971 226 b 840 51 971 97 929 51 b 708 167 750 51 708 97 z "},"⅜":{"ha":1275,"x_min":0,"x_max":0,"o":"m 51 831 l 107 801 b 239 875 154 850 188 875 b 344 788 303 875 344 838 b 224 681 344 728 288 690 l 156 669 l 167 613 b 264 626 239 625 254 626 b 365 538 314 626 365 600 b 119 399 365 451 272 399 b 69 401 99 399 81 400 l 74 338 b 119 333 83 335 97 333 b 440 536 294 333 440 400 b 325 668 440 615 383 661 l 325 674 b 418 796 374 689 418 729 b 244 935 418 883 338 935 b 51 831 146 935 85 879 z m 850 925 l 324 0 l 396 0 l 922 925 z m 914 299 b 800 163 865 293 800 246 b 1007 -7 800 47 889 -7 b 1213 163 1122 -7 1213 47 b 1099 299 1213 246 1147 293 l 1099 304 b 1194 431 1135 311 1194 354 b 1007 581 1194 508 1128 581 b 818 431 885 581 818 508 b 914 304 818 354 878 311 z m 889 424 b 1007 524 889 476 929 524 b 1125 424 1083 524 1125 476 b 1007 326 1125 369 1085 326 b 889 424 928 326 889 369 z m 1007 51 b 875 167 917 51 875 97 b 1007 271 875 226 911 271 b 1138 167 1103 271 1138 226 b 1007 51 1138 97 1096 51 z "},"⅝":{"ha":1275,"x_min":0,"x_max":0,"o":"m 133 399 b 82 401 111 399 96 400 l 86 338 b 133 333 97 335 110 333 b 443 561 304 333 443 394 b 281 733 443 660 390 733 b 147 681 236 733 201 721 l 161 864 l 424 864 l 426 926 l 103 926 l 82 631 l 124 613 b 265 672 182 660 222 672 b 371 558 347 672 371 614 b 133 399 371 450 285 399 z m 850 925 l 324 0 l 396 0 l 922 925 z m 914 299 b 800 163 865 293 800 246 b 1007 -7 800 47 889 -7 b 1213 163 1122 -7 1213 47 b 1099 299 1213 246 1147 293 l 1099 304 b 1194 431 1135 311 1194 354 b 1007 581 1194 508 1128 581 b 818 431 885 581 818 508 b 914 304 818 354 878 311 z m 889 424 b 1007 524 889 476 929 524 b 1125 424 1083 524 1125 476 b 1007 326 1125 369 1085 326 b 889 424 928 326 889 369 z m 1007 51 b 875 167 917 51 875 97 b 1007 271 875 226 911 271 b 1138 167 1103 271 1138 226 b 1007 51 1138 97 1096 51 z "},"⅞":{"ha":1178,"x_min":0,"x_max":0,"o":"m 46 925 l 46 863 l 353 863 b 115 350 286 786 146 596 l 196 350 b 433 869 235 651 379 813 l 433 925 z m 753 925 l 226 0 l 299 0 l 825 925 z m 817 299 b 703 163 768 293 703 246 b 910 -7 703 47 792 -7 b 1115 163 1025 -7 1115 47 b 1001 299 1115 246 1050 293 l 1001 304 b 1097 431 1038 311 1097 354 b 910 581 1097 508 1031 581 b 721 431 788 581 721 508 b 817 304 721 354 781 311 z m 792 424 b 910 524 792 476 832 524 b 1028 424 986 524 1028 476 b 910 326 1028 369 988 326 b 792 424 831 326 792 369 z m 910 51 b 778 167 819 51 778 97 b 910 271 778 226 814 271 b 1040 167 1006 271 1040 226 b 910 51 1040 97 999 51 z "},"⁄":{"ha":233,"x_min":0,"x_max":0,"o":"m 344 925 l -182 0 l -110 0 l 417 925 z "},"Á":{"ha":861,"x_min":0,"x_max":0,"o":"m 711 0 l 808 0 l 485 981 l 379 981 l 50 0 l 139 0 l 218 242 l 633 242 z m 611 319 l 243 319 l 404 811 l 422 882 l 433 882 l 450 811 z m 539 1290 l 375 1117 l 375 1088 l 418 1088 l 631 1257 l 631 1290 z "},"À":{"ha":861,"x_min":0,"x_max":0,"o":"m 711 0 l 808 0 l 485 981 l 379 981 l 50 0 l 139 0 l 218 242 l 633 242 z m 611 319 l 243 319 l 404 811 l 422 882 l 433 882 l 450 811 z m 228 1290 l 228 1257 l 440 1088 l 483 1088 l 483 1117 l 319 1290 z "},"Â":{"ha":861,"x_min":0,"x_max":0,"o":"m 711 0 l 808 0 l 485 981 l 379 981 l 50 0 l 139 0 l 218 242 l 633 242 z m 611 319 l 243 319 l 404 811 l 422 882 l 433 882 l 450 811 z m 394 1290 l 254 1113 l 254 1088 l 294 1088 l 426 1221 l 433 1221 l 565 1088 l 606 1088 l 606 1113 l 467 1290 z "},"Ä":{"ha":861,"x_min":0,"x_max":0,"o":"m 711 0 l 808 0 l 485 981 l 379 981 l 50 0 l 139 0 l 218 242 l 633 242 z m 611 319 l 243 319 l 404 811 l 422 882 l 433 882 l 450 811 z m 239 1233 l 239 1115 l 332 1115 l 332 1233 z m 529 1233 l 529 1115 l 624 1115 l 624 1233 z "},"Ã":{"ha":861,"x_min":0,"x_max":0,"o":"m 711 0 l 808 0 l 485 981 l 379 981 l 50 0 l 139 0 l 218 242 l 633 242 z m 611 319 l 243 319 l 404 811 l 422 882 l 433 882 l 450 811 z m 200 1150 l 249 1115 l 285 1151 b 340 1183 310 1175 324 1183 b 388 1157 356 1183 371 1172 l 415 1131 b 513 1079 456 1090 479 1079 b 615 1133 542 1079 571 1089 l 664 1182 l 615 1215 l 579 1179 b 524 1149 554 1156 540 1149 b 476 1175 508 1149 493 1158 l 449 1200 b 351 1251 408 1240 385 1251 b 249 1197 322 1251 293 1242 z "},"Å":{"ha":861,"x_min":0,"x_max":0,"o":"m 711 0 l 808 0 l 485 981 l 379 981 l 50 0 l 139 0 l 218 242 l 633 242 z m 611 319 l 243 319 l 404 811 l 422 882 l 433 882 l 450 811 z m 278 1182 b 431 1035 278 1100 346 1035 b 583 1182 517 1035 583 1100 b 431 1329 583 1263 517 1329 b 278 1182 346 1329 278 1263 z m 329 1182 b 431 1283 329 1236 375 1283 b 532 1182 486 1283 532 1236 b 431 1082 532 1126 486 1082 b 329 1182 375 1082 329 1126 z "},"Ç":{"ha":911,"x_min":0,"x_max":0,"o":"m 804 140 b 528 64 736 97 653 64 b 175 490 275 64 175 275 b 531 918 175 722 286 918 b 803 839 654 918 735 882 l 825 924 b 533 996 760 965 663 996 b 79 486 240 996 79 764 b 438 -7 79 225 206 31 l 438 -51 b 453 -83 438 -64 444 -76 l 492 -121 b 526 -179 510 -137 526 -151 b 451 -237 526 -224 489 -237 b 360 -215 422 -237 378 -229 l 346 -276 b 451 -306 371 -297 410 -306 b 603 -183 544 -306 603 -260 b 558 -83 603 -135 578 -103 l 517 -40 b 506 -19 510 -35 506 -26 l 506 -12 b 525 -14 511 -12 518 -14 b 825 58 658 -14 760 17 z "},"É":{"ha":886,"x_min":0,"x_max":0,"o":"m 139 981 l 139 0 l 792 0 l 792 78 l 232 78 l 232 472 l 715 472 l 715 550 l 232 550 l 232 903 l 778 903 l 778 981 z m 574 1290 l 410 1117 l 410 1088 l 453 1088 l 665 1257 l 665 1290 z "},"È":{"ha":886,"x_min":0,"x_max":0,"o":"m 139 981 l 139 0 l 792 0 l 792 78 l 232 78 l 232 472 l 715 472 l 715 550 l 232 550 l 232 903 l 778 903 l 778 981 z m 263 1290 l 263 1257 l 475 1088 l 518 1088 l 518 1117 l 354 1290 z "},"Ê":{"ha":886,"x_min":0,"x_max":0,"o":"m 139 981 l 139 0 l 792 0 l 792 78 l 232 78 l 232 472 l 715 472 l 715 550 l 232 550 l 232 903 l 778 903 l 778 981 z m 429 1290 l 289 1113 l 289 1088 l 329 1088 l 461 1221 l 468 1221 l 600 1088 l 640 1088 l 640 1113 l 501 1290 z "},"Ë":{"ha":886,"x_min":0,"x_max":0,"o":"m 139 981 l 139 0 l 792 0 l 792 78 l 232 78 l 232 472 l 715 472 l 715 550 l 232 550 l 232 903 l 778 903 l 778 981 z m 274 1233 l 274 1115 l 367 1115 l 367 1233 z m 564 1233 l 564 1115 l 658 1115 l 658 1233 z "},"Í":{"ha":371,"x_min":0,"x_max":0,"o":"m 139 981 l 139 0 l 232 0 l 232 981 z m 292 1290 l 128 1117 l 128 1088 l 169 1088 l 383 1257 l 383 1290 z "},"Ì":{"ha":371,"x_min":0,"x_max":0,"o":"m 139 981 l 139 0 l 232 0 l 232 981 z m -12 1290 l -12 1257 l 200 1088 l 243 1088 l 243 1117 l 79 1290 z "},"Î":{"ha":371,"x_min":0,"x_max":0,"o":"m 139 981 l 139 0 l 232 0 l 232 981 z m 149 1290 l 8 1113 l 8 1088 l 49 1088 l 181 1221 l 188 1221 l 319 1088 l 360 1088 l 360 1113 l 221 1290 z "},"Ï":{"ha":371,"x_min":0,"x_max":0,"o":"m 139 981 l 139 0 l 232 0 l 232 981 z m -7 1233 l -7 1115 l 86 1115 l 86 1233 z m 283 1233 l 283 1115 l 378 1115 l 378 1233 z "},"Ł":{"ha":747,"x_min":0,"x_max":0,"o":"m 38 307 l 167 403 l 167 0 l 736 0 l 736 78 l 260 78 l 260 472 l 494 649 l 494 738 l 260 561 l 260 981 l 167 981 l 167 492 l 38 396 z "},"Ñ":{"ha":997,"x_min":0,"x_max":0,"o":"m 139 0 l 228 0 l 228 722 l 215 894 l 226 894 l 296 742 l 733 0 l 858 0 l 858 981 l 769 981 l 769 257 l 781 85 l 771 85 l 701 239 l 268 981 l 139 981 z m 267 1150 l 315 1115 l 351 1151 b 407 1183 376 1175 390 1183 b 454 1157 422 1183 438 1172 l 482 1131 b 579 1079 522 1090 546 1079 b 682 1133 608 1079 638 1089 l 731 1182 l 682 1215 l 646 1179 b 590 1149 621 1156 607 1149 b 543 1175 575 1149 560 1158 l 515 1200 b 418 1251 475 1240 451 1251 b 315 1197 389 1251 360 1242 z "},"Ó":{"ha":1046,"x_min":0,"x_max":0,"o":"m 522 996 b 79 492 274 996 79 828 b 522 -14 79 157 267 -14 b 967 492 769 -14 967 160 b 522 996 967 829 772 996 z m 522 918 b 871 492 751 918 871 738 b 522 64 871 229 751 64 b 175 492 296 64 175 247 b 522 918 175 750 297 918 z m 629 1290 l 465 1117 l 465 1088 l 508 1088 l 721 1257 l 721 1290 z "},"Ò":{"ha":1046,"x_min":0,"x_max":0,"o":"m 522 996 b 79 492 274 996 79 828 b 522 -14 79 157 267 -14 b 967 492 769 -14 967 160 b 522 996 967 829 772 996 z m 522 918 b 871 492 751 918 871 738 b 522 64 871 229 751 64 b 175 492 296 64 175 247 b 522 918 175 750 297 918 z m 318 1290 l 318 1257 l 531 1088 l 574 1088 l 574 1117 l 410 1290 z "},"Ô":{"ha":1046,"x_min":0,"x_max":0,"o":"m 522 996 b 79 492 274 996 79 828 b 522 -14 79 157 267 -14 b 967 492 769 -14 967 160 b 522 996 967 829 772 996 z m 522 918 b 871 492 751 918 871 738 b 522 64 871 229 751 64 b 175 492 296 64 175 247 b 522 918 175 750 297 918 z m 485 1290 l 344 1113 l 344 1088 l 385 1088 l 517 1221 l 524 1221 l 656 1088 l 696 1088 l 696 1113 l 557 1290 z "},"Ö":{"ha":1046,"x_min":0,"x_max":0,"o":"m 522 996 b 79 492 274 996 79 828 b 522 -14 79 157 267 -14 b 967 492 769 -14 967 160 b 522 996 967 829 772 996 z m 522 918 b 871 492 751 918 871 738 b 522 64 871 229 751 64 b 175 492 296 64 175 247 b 522 918 175 750 297 918 z m 329 1233 l 329 1115 l 422 1115 l 422 1233 z m 619 1233 l 619 1115 l 714 1115 l 714 1233 z "},"Õ":{"ha":1046,"x_min":0,"x_max":0,"o":"m 522 996 b 79 492 274 996 79 828 b 522 -14 79 157 267 -14 b 967 492 769 -14 967 160 b 522 996 967 829 772 996 z m 522 918 b 871 492 751 918 871 738 b 522 64 871 229 751 64 b 175 492 296 64 175 247 b 522 918 175 750 297 918 z m 290 1150 l 339 1115 l 375 1151 b 431 1183 400 1175 414 1183 b 478 1157 446 1183 461 1172 l 506 1131 b 603 1079 546 1090 569 1079 b 706 1133 632 1079 661 1089 l 754 1182 l 706 1215 l 669 1179 b 614 1149 644 1156 631 1149 b 567 1175 599 1149 583 1158 l 539 1200 b 442 1251 499 1240 475 1251 b 339 1197 413 1251 383 1242 z "},"Ø":{"ha":1046,"x_min":0,"x_max":0,"o":"m 792 1072 l 731 950 b 522 996 668 981 597 996 b 79 492 274 996 79 828 b 283 49 79 274 158 125 l 214 -93 l 281 -93 l 338 21 b 522 -14 393 -1 456 -14 b 967 492 769 -14 967 160 b 782 918 967 697 894 839 l 858 1072 z m 522 918 b 693 875 588 918 644 903 l 325 125 b 175 492 226 199 175 332 b 522 918 175 750 297 918 z m 871 492 b 522 64 871 229 751 64 b 376 94 467 64 418 75 l 742 840 b 871 492 826 764 871 640 z "},"Š":{"ha":760,"x_min":0,"x_max":0,"o":"m 658 950 b 408 996 589 974 508 996 b 78 731 214 996 78 907 b 365 458 78 533 249 490 b 613 242 471 429 613 383 b 354 57 613 111 493 57 b 86 117 267 57 164 78 l 64 33 b 344 -21 143 -4 254 -21 b 707 260 574 -21 707 92 b 400 544 707 432 568 496 b 171 743 293 575 171 608 b 401 919 171 872 278 919 b 638 869 489 919 574 897 z m 417 1088 l 556 1264 l 556 1290 l 515 1290 l 383 1156 l 376 1156 l 244 1290 l 204 1290 l 204 1264 l 344 1088 z "},"Ú":{"ha":950,"x_min":0,"x_max":0,"o":"m 124 981 l 124 324 b 476 -14 124 163 164 -14 b 826 324 789 -14 826 163 l 826 981 l 733 981 l 733 333 b 475 64 733 194 718 64 b 217 333 231 64 217 194 l 217 981 z m 579 1290 l 415 1117 l 415 1088 l 458 1088 l 671 1257 l 671 1290 z "},"Ù":{"ha":950,"x_min":0,"x_max":0,"o":"m 124 981 l 124 324 b 476 -14 124 163 164 -14 b 826 324 789 -14 826 163 l 826 981 l 733 981 l 733 333 b 475 64 733 194 718 64 b 217 333 231 64 217 194 l 217 981 z m 268 1290 l 268 1257 l 481 1088 l 524 1088 l 524 1117 l 360 1290 z "},"Û":{"ha":950,"x_min":0,"x_max":0,"o":"m 124 981 l 124 324 b 476 -14 124 163 164 -14 b 826 324 789 -14 826 163 l 826 981 l 733 981 l 733 333 b 475 64 733 194 718 64 b 217 333 231 64 217 194 l 217 981 z m 435 1290 l 294 1113 l 294 1088 l 335 1088 l 467 1221 l 474 1221 l 606 1088 l 646 1088 l 646 1113 l 507 1290 z "},"Ü":{"ha":950,"x_min":0,"x_max":0,"o":"m 124 981 l 124 324 b 476 -14 124 163 164 -14 b 826 324 789 -14 826 163 l 826 981 l 733 981 l 733 333 b 475 64 733 194 718 64 b 217 333 231 64 217 194 l 217 981 z m 279 1233 l 279 1115 l 372 1115 l 372 1233 z m 569 1233 l 569 1115 l 664 1115 l 664 1233 z "},"Ý":{"ha":826,"x_min":0,"x_max":0,"o":"m 17 981 l 367 357 l 367 0 l 458 0 l 458 357 l 811 981 l 708 981 l 418 442 l 129 981 z m 522 1290 l 358 1117 l 358 1088 l 401 1088 l 614 1257 l 614 1290 z "},"Ÿ":{"ha":826,"x_min":0,"x_max":0,"o":"m 17 981 l 367 357 l 367 0 l 458 0 l 458 357 l 811 981 l 708 981 l 418 442 l 129 981 z m 222 1233 l 222 1115 l 315 1115 l 315 1233 z m 513 1233 l 513 1115 l 607 1115 l 607 1233 z "},"Ž":{"ha":854,"x_min":0,"x_max":0,"o":"m 115 981 l 115 903 l 664 903 l 65 67 l 65 0 l 789 0 l 789 78 l 181 78 l 782 914 l 782 981 z m 464 1088 l 603 1264 l 603 1290 l 563 1290 l 431 1156 l 424 1156 l 292 1290 l 251 1290 l 251 1264 l 392 1088 z "},"Ð":{"ha":1038,"x_min":0,"x_max":0,"o":"m 40 479 l 167 479 l 167 0 l 467 0 b 950 497 736 0 950 132 b 467 981 950 843 738 981 l 167 981 l 167 550 l 40 550 z m 476 903 b 853 497 733 903 853 722 b 476 78 853 249 729 78 l 260 78 l 260 479 l 521 479 l 521 550 l 260 550 l 260 903 z "},"Þ":{"ha":894,"x_min":0,"x_max":0,"o":"m 232 703 l 521 703 b 693 644 603 703 658 681 b 746 496 729 608 746 556 b 688 333 746 426 726 371 b 521 283 653 301 601 283 l 232 283 z m 139 981 l 139 0 l 232 0 l 232 206 l 510 206 b 761 282 642 206 711 233 b 840 496 814 333 840 408 b 771 694 840 575 818 644 b 510 781 721 749 640 781 l 232 781 l 232 981 z "},"Æ":{"ha":1353,"x_min":0,"x_max":0,"o":"m 1258 0 l 1258 78 l 697 78 l 697 472 l 1182 472 l 1182 550 l 697 550 l 697 903 l 1244 903 l 1244 981 l 561 981 l -25 0 l 74 0 l 213 240 l 606 240 l 606 0 z m 606 318 l 261 318 l 550 813 l 593 908 l 606 908 z "},"Œ":{"ha":1615,"x_min":0,"x_max":0,"o":"m 868 981 l 868 789 b 522 996 796 929 668 996 b 79 492 274 996 79 828 b 522 -14 79 157 275 -14 b 868 192 667 -14 796 53 l 868 0 l 1521 0 l 1521 78 l 960 78 l 960 472 l 1444 472 l 1444 550 l 960 550 l 960 903 l 1507 903 l 1507 981 z m 522 918 b 871 492 751 918 871 738 b 522 64 871 229 747 64 b 175 492 290 64 175 247 b 522 918 175 750 297 918 z "},"á":{"ha":733,"x_min":0,"x_max":0,"o":"m 660 0 b 621 179 643 29 621 86 l 621 471 b 369 725 621 658 531 725 b 107 660 249 725 149 688 l 140 593 b 367 650 199 622 281 650 b 533 481 485 650 533 597 l 533 424 b 65 190 172 421 65 329 b 289 -11 65 63 154 -11 b 540 122 392 -11 483 33 b 572 0 543 63 561 19 z m 306 60 b 154 197 204 60 154 111 b 533 368 154 281 204 354 l 533 249 b 306 60 533 156 446 60 z m 474 1038 l 310 864 l 310 835 l 353 835 l 565 1004 l 565 1038 z "},"à":{"ha":733,"x_min":0,"x_max":0,"o":"m 660 0 b 621 179 643 29 621 86 l 621 471 b 369 725 621 658 531 725 b 107 660 249 725 149 688 l 140 593 b 367 650 199 622 281 650 b 533 481 485 650 533 597 l 533 424 b 65 190 172 421 65 329 b 289 -11 65 63 154 -11 b 540 122 392 -11 483 33 b 572 0 543 63 561 19 z m 306 60 b 154 197 204 60 154 111 b 533 368 154 281 204 354 l 533 249 b 306 60 533 156 446 60 z m 163 1038 l 163 1004 l 375 835 l 418 835 l 418 864 l 254 1038 z "},"â":{"ha":733,"x_min":0,"x_max":0,"o":"m 660 0 b 621 179 643 29 621 86 l 621 471 b 369 725 621 658 531 725 b 107 660 249 725 149 688 l 140 593 b 367 650 199 622 281 650 b 533 481 485 650 533 597 l 533 424 b 65 190 172 421 65 329 b 289 -11 65 63 154 -11 b 540 122 392 -11 483 33 b 572 0 543 63 561 19 z m 306 60 b 154 197 204 60 154 111 b 533 368 154 281 204 354 l 533 249 b 306 60 533 156 446 60 z m 329 1038 l 189 860 l 189 835 l 229 835 l 361 968 l 368 968 l 500 835 l 540 835 l 540 860 l 401 1038 z "},"ä":{"ha":733,"x_min":0,"x_max":0,"o":"m 660 0 b 621 179 643 29 621 86 l 621 471 b 369 725 621 658 531 725 b 107 660 249 725 149 688 l 140 593 b 367 650 199 622 281 650 b 533 481 485 650 533 597 l 533 424 b 65 190 172 421 65 329 b 289 -11 65 63 154 -11 b 540 122 392 -11 483 33 b 572 0 543 63 561 19 z m 306 60 b 154 197 204 60 154 111 b 533 368 154 281 204 354 l 533 249 b 306 60 533 156 446 60 z m 174 981 l 174 863 l 267 863 l 267 981 z m 464 981 l 464 863 l 558 863 l 558 981 z "},"ã":{"ha":733,"x_min":0,"x_max":0,"o":"m 660 0 b 621 179 643 29 621 86 l 621 471 b 369 725 621 658 531 725 b 107 660 249 725 149 688 l 140 593 b 367 650 199 622 281 650 b 533 481 485 650 533 597 l 533 424 b 65 190 172 421 65 329 b 289 -11 65 63 154 -11 b 540 122 392 -11 483 33 b 572 0 543 63 561 19 z m 306 60 b 154 197 204 60 154 111 b 533 368 154 281 204 354 l 533 249 b 306 60 533 156 446 60 z m 135 897 l 183 863 l 219 899 b 275 931 244 922 258 931 b 322 904 290 931 306 919 l 350 878 b 447 826 390 838 414 826 b 550 881 476 826 506 836 l 599 929 l 550 963 l 514 926 b 458 896 489 903 475 896 b 411 922 443 896 428 906 l 383 947 b 286 999 343 988 319 999 b 183 944 257 999 228 989 z "},"å":{"ha":733,"x_min":0,"x_max":0,"o":"m 660 0 b 621 179 643 29 621 86 l 621 471 b 369 725 621 658 531 725 b 107 660 249 725 149 688 l 140 593 b 367 650 199 622 281 650 b 533 481 485 650 533 597 l 533 424 b 65 190 172 421 65 329 b 289 -11 65 63 154 -11 b 540 122 392 -11 483 33 b 572 0 543 63 561 19 z m 306 60 b 154 197 204 60 154 111 b 533 368 154 281 204 354 l 533 249 b 306 60 533 156 446 60 z m 213 974 b 365 826 213 892 281 826 b 518 974 451 826 518 892 b 365 1121 518 1054 451 1121 b 213 974 281 1121 213 1054 z m 264 974 b 365 1075 264 1028 310 1075 b 467 974 421 1075 467 1028 b 365 874 467 918 421 874 b 264 974 310 874 264 918 z "},"ç":{"ha":672,"x_min":0,"x_max":0,"o":"m 579 119 b 400 64 529 85 469 64 b 164 351 217 64 164 206 b 399 650 164 525 239 650 b 579 594 471 650 529 628 l 603 669 b 397 725 549 704 482 725 b 74 350 185 725 74 569 b 308 -1 74 171 149 33 l 308 -51 b 324 -83 308 -64 315 -76 l 363 -121 b 397 -179 381 -137 397 -151 b 322 -237 397 -224 360 -237 b 231 -215 293 -237 249 -229 l 217 -276 b 322 -306 242 -297 281 -306 b 474 -183 415 -306 474 -260 b 429 -83 474 -135 449 -103 l 388 -40 b 376 -19 381 -35 376 -26 l 376 -11 l 394 -11 b 603 44 483 -11 549 10 z "},"é":{"ha":751,"x_min":0,"x_max":0,"o":"m 675 344 b 679 410 678 376 679 390 b 394 725 679 593 579 725 b 74 346 194 725 74 567 b 411 -11 74 142 178 -11 b 661 72 515 -11 593 19 l 626 142 b 411 64 560 93 496 64 b 164 344 222 64 165 201 z m 392 653 b 590 413 524 653 594 549 l 167 413 b 392 653 185 563 268 653 z m 490 1038 l 326 864 l 326 835 l 369 835 l 582 1004 l 582 1038 z "},"è":{"ha":751,"x_min":0,"x_max":0,"o":"m 675 344 b 679 410 678 376 679 390 b 394 725 679 593 579 725 b 74 346 194 725 74 567 b 411 -11 74 142 178 -11 b 661 72 515 -11 593 19 l 626 142 b 411 64 560 93 496 64 b 164 344 222 64 165 201 z m 392 653 b 590 413 524 653 594 549 l 167 413 b 392 653 185 563 268 653 z m 179 1038 l 179 1004 l 392 835 l 435 835 l 435 864 l 271 1038 z "},"ê":{"ha":751,"x_min":0,"x_max":0,"o":"m 675 344 b 679 410 678 376 679 390 b 394 725 679 593 579 725 b 74 346 194 725 74 567 b 411 -11 74 142 178 -11 b 661 72 515 -11 593 19 l 626 142 b 411 64 560 93 496 64 b 164 344 222 64 165 201 z m 392 653 b 590 413 524 653 594 549 l 167 413 b 392 653 185 563 268 653 z m 346 1038 l 206 860 l 206 835 l 246 835 l 378 968 l 385 968 l 517 835 l 557 835 l 557 860 l 418 1038 z "},"ë":{"ha":751,"x_min":0,"x_max":0,"o":"m 675 344 b 679 410 678 376 679 390 b 394 725 679 593 579 725 b 74 346 194 725 74 567 b 411 -11 74 142 178 -11 b 661 72 515 -11 593 19 l 626 142 b 411 64 560 93 496 64 b 164 344 222 64 165 201 z m 392 653 b 590 413 524 653 594 549 l 167 413 b 392 653 185 563 268 653 z m 190 981 l 190 863 l 283 863 l 283 981 z m 481 981 l 481 863 l 575 863 l 575 981 z "},"í":{"ha":338,"x_min":0,"x_max":0,"o":"m 125 714 l 125 0 l 213 0 l 213 714 z m 278 1038 l 114 864 l 114 835 l 156 835 l 369 1004 l 369 1038 z "},"ì":{"ha":338,"x_min":0,"x_max":0,"o":"m 125 714 l 125 0 l 213 0 l 213 714 z m -32 1038 l -32 1004 l 181 835 l 224 835 l 224 864 l 60 1038 z "},"î":{"ha":338,"x_min":0,"x_max":0,"o":"m 125 714 l 125 0 l 213 0 l 213 714 z m 132 1038 l -7 860 l -7 835 l 32 835 l 165 968 l 172 968 l 303 835 l 344 835 l 344 860 l 204 1038 z "},"ï":{"ha":338,"x_min":0,"x_max":0,"o":"m 125 714 l 125 0 l 213 0 l 213 714 z m -24 981 l -24 863 l 71 863 l 71 981 z m 267 981 l 267 863 l 361 863 l 361 981 z "},"ı":{"ha":338,"x_min":0,"x_max":0,"o":"m 125 714 l 125 0 l 213 0 l 213 714 z "},"ł":{"ha":354,"x_min":0,"x_max":0,"o":"m 29 350 l 133 428 l 133 0 l 221 0 l 221 494 l 326 574 l 326 665 l 221 586 l 221 1022 l 133 1022 l 133 519 l 29 442 z "},"ñ":{"ha":781,"x_min":0,"x_max":0,"o":"m 672 0 l 672 461 b 610 656 672 553 651 613 b 433 725 568 699 510 725 b 207 589 342 725 258 689 l 193 714 l 111 714 l 125 589 l 125 0 l 213 0 l 213 482 b 411 650 213 556 283 650 b 543 601 472 650 515 631 b 585 475 574 569 585 525 l 585 0 z m 165 897 l 214 863 l 250 899 b 306 931 275 922 289 931 b 353 904 321 931 336 919 l 381 878 b 478 826 421 838 444 826 b 581 881 507 826 536 836 l 629 929 l 581 963 l 544 926 b 489 896 519 903 506 896 b 442 922 474 896 458 906 l 414 947 b 317 999 374 988 350 999 b 214 944 288 999 258 989 z "},"ó":{"ha":775,"x_min":0,"x_max":0,"o":"m 389 725 b 74 358 188 725 74 563 b 389 -11 74 138 193 -11 b 701 358 590 -11 701 158 b 389 725 701 574 583 725 z m 388 650 b 611 358 547 650 611 513 b 388 64 611 197 544 64 b 164 358 228 64 164 201 b 388 650 164 519 231 650 z m 497 1038 l 333 864 l 333 835 l 376 835 l 589 1004 l 589 1038 z "},"ò":{"ha":775,"x_min":0,"x_max":0,"o":"m 389 725 b 74 358 188 725 74 563 b 389 -11 74 138 193 -11 b 701 358 590 -11 701 158 b 389 725 701 574 583 725 z m 388 650 b 611 358 547 650 611 513 b 388 64 611 197 544 64 b 164 358 228 64 164 201 b 388 650 164 519 231 650 z m 186 1038 l 186 1004 l 399 835 l 442 835 l 442 864 l 278 1038 z "},"ô":{"ha":775,"x_min":0,"x_max":0,"o":"m 389 725 b 74 358 188 725 74 563 b 389 -11 74 138 193 -11 b 701 358 590 -11 701 158 b 389 725 701 574 583 725 z m 388 650 b 611 358 547 650 611 513 b 388 64 611 197 544 64 b 164 358 228 64 164 201 b 388 650 164 519 231 650 z m 353 1038 l 213 860 l 213 835 l 253 835 l 385 968 l 392 968 l 524 835 l 564 835 l 564 860 l 425 1038 z "},"ö":{"ha":775,"x_min":0,"x_max":0,"o":"m 389 725 b 74 358 188 725 74 563 b 389 -11 74 138 193 -11 b 701 358 590 -11 701 158 b 389 725 701 574 583 725 z m 388 650 b 611 358 547 650 611 513 b 388 64 611 197 544 64 b 164 358 228 64 164 201 b 388 650 164 519 231 650 z m 197 981 l 197 863 l 290 863 l 290 981 z m 488 981 l 488 863 l 582 863 l 582 981 z "},"õ":{"ha":775,"x_min":0,"x_max":0,"o":"m 389 725 b 74 358 188 725 74 563 b 389 -11 74 138 193 -11 b 701 358 590 -11 701 158 b 389 725 701 574 583 725 z m 388 650 b 611 358 547 650 611 513 b 388 64 611 197 544 64 b 164 358 228 64 164 201 b 388 650 164 519 231 650 z m 158 897 l 207 863 l 243 899 b 299 931 268 922 282 931 b 346 904 314 931 329 919 l 374 878 b 471 826 414 838 438 826 b 574 881 500 826 529 836 l 622 929 l 574 963 l 538 926 b 482 896 513 903 499 896 b 435 922 467 896 451 906 l 407 947 b 310 999 367 988 343 999 b 207 944 281 999 251 989 z "},"ø":{"ha":775,"x_min":0,"x_max":0,"o":"m 576 794 l 526 694 b 389 725 486 714 440 725 b 74 358 188 725 74 563 b 201 47 74 221 119 111 l 131 -93 l 197 -93 l 253 17 b 389 -11 292 -1 338 -11 b 701 358 590 -11 701 158 b 576 663 701 490 656 599 l 643 794 z m 388 650 b 490 625 428 650 463 642 l 239 122 b 164 358 186 178 164 264 b 388 650 164 519 231 650 z m 611 358 b 388 64 611 197 544 64 b 286 86 347 64 315 72 l 538 588 b 611 358 589 533 611 449 z "},"š":{"ha":615,"x_min":0,"x_max":0,"o":"m 68 22 b 281 -21 94 7 189 -21 b 551 192 422 -21 551 44 b 346 399 551 328 440 371 b 164 543 236 431 164 458 b 318 654 164 621 231 654 b 503 614 386 654 447 636 l 522 688 b 324 725 472 711 393 725 b 81 535 181 725 81 658 b 267 336 81 418 181 364 b 465 179 382 300 465 271 b 279 50 465 85 375 50 b 86 96 199 50 126 75 z m 346 835 l 485 1011 l 485 1038 l 444 1038 l 313 903 l 306 903 l 174 1038 l 133 1038 l 133 1011 l 274 835 z "},"ú":{"ha":781,"x_min":0,"x_max":0,"o":"m 111 714 l 111 253 b 174 57 111 161 133 100 b 351 -11 215 15 275 -11 b 576 125 442 -11 525 25 l 590 0 l 672 0 l 658 125 l 658 714 l 571 714 l 571 232 b 372 64 571 158 500 64 b 240 113 313 64 268 83 b 199 239 210 143 199 189 l 199 714 z m 504 1038 l 340 864 l 340 835 l 383 835 l 596 1004 l 596 1038 z "},"ù":{"ha":781,"x_min":0,"x_max":0,"o":"m 111 714 l 111 253 b 174 57 111 161 133 100 b 351 -11 215 15 275 -11 b 576 125 442 -11 525 25 l 590 0 l 672 0 l 658 125 l 658 714 l 571 714 l 571 232 b 372 64 571 158 500 64 b 240 113 313 64 268 83 b 199 239 210 143 199 189 l 199 714 z m 193 1038 l 193 1004 l 406 835 l 449 835 l 449 864 l 285 1038 z "},"û":{"ha":781,"x_min":0,"x_max":0,"o":"m 111 714 l 111 253 b 174 57 111 161 133 100 b 351 -11 215 15 275 -11 b 576 125 442 -11 525 25 l 590 0 l 672 0 l 658 125 l 658 714 l 571 714 l 571 232 b 372 64 571 158 500 64 b 240 113 313 64 268 83 b 199 239 210 143 199 189 l 199 714 z m 360 1038 l 219 860 l 219 835 l 260 835 l 392 968 l 399 968 l 531 835 l 571 835 l 571 860 l 432 1038 z "},"ü":{"ha":781,"x_min":0,"x_max":0,"o":"m 111 714 l 111 253 b 174 57 111 161 133 100 b 351 -11 215 15 275 -11 b 576 125 442 -11 525 25 l 590 0 l 672 0 l 658 125 l 658 714 l 571 714 l 571 232 b 372 64 571 158 500 64 b 240 113 313 64 268 83 b 199 239 210 143 199 189 l 199 714 z m 204 981 l 204 863 l 297 863 l 297 981 z m 494 981 l 494 863 l 589 863 l 589 981 z "},"ý":{"ha":632,"x_min":0,"x_max":0,"o":"m 4 714 l 278 -11 l 239 -117 b 78 -233 210 -200 178 -233 l 85 -300 b 138 -308 96 -307 115 -308 b 325 -103 236 -308 288 -208 l 624 714 l 528 714 l 339 154 l 325 100 l 319 100 l 306 154 l 101 714 z m 424 1038 l 260 864 l 260 835 l 303 835 l 515 1004 l 515 1038 z "},"ÿ":{"ha":632,"x_min":0,"x_max":0,"o":"m 4 714 l 278 -11 l 239 -117 b 78 -233 210 -200 178 -233 l 85 -300 b 138 -308 96 -307 115 -308 b 325 -103 236 -308 288 -208 l 624 714 l 528 714 l 339 154 l 325 100 l 319 100 l 306 154 l 101 714 z m 124 981 l 124 863 l 217 863 l 217 981 z m 414 981 l 414 863 l 508 863 l 508 981 z "},"ž":{"ha":615,"x_min":0,"x_max":0,"o":"m 85 714 l 85 646 l 456 646 l 51 56 l 51 0 l 569 0 l 569 68 l 154 68 l 558 658 l 558 714 z m 360 835 l 499 1011 l 499 1038 l 458 1038 l 326 903 l 319 903 l 188 1038 l 147 1038 l 147 1011 l 288 835 z "},"ð":{"ha":775,"x_min":0,"x_max":0,"o":"m 701 364 b 421 913 701 533 628 722 l 535 957 l 535 1015 l 375 954 b 274 1033 344 979 310 1006 l 199 994 b 297 924 221 981 268 946 l 168 872 l 168 814 l 344 882 b 526 665 410 828 483 746 b 385 725 486 708 447 725 b 74 356 188 725 74 563 b 388 -11 74 139 193 -11 b 701 364 590 -11 701 156 z m 388 650 b 613 357 547 650 613 514 b 388 64 613 199 544 64 b 164 360 228 64 164 201 b 388 650 164 518 231 650 z "},"þ":{"ha":792,"x_min":0,"x_max":0,"o":"m 125 1022 l 125 -306 l 213 -306 l 213 103 b 435 -11 261 17 346 -11 b 717 364 657 -11 717 199 b 428 725 717 560 632 725 b 213 606 331 725 267 686 l 213 1022 z m 418 650 b 631 357 588 650 631 504 b 407 64 631 213 590 64 b 213 231 276 64 213 167 l 213 482 b 418 650 213 542 275 650 z "},"æ":{"ha":1213,"x_min":0,"x_max":0,"o":"m 289 -11 b 571 172 411 -11 515 46 b 872 -11 615 60 715 -11 b 1122 72 975 -11 1053 19 l 1086 142 b 872 64 1021 93 957 64 b 621 344 686 64 622 196 l 1136 344 b 1140 410 1139 376 1140 390 b 858 725 1140 593 1039 725 b 600 567 739 725 649 664 b 369 725 574 681 493 725 b 107 660 249 725 149 688 l 140 593 b 367 650 199 622 281 650 b 533 481 485 650 533 597 l 533 424 b 65 190 172 421 65 329 b 289 -11 65 63 153 -11 z m 306 60 b 154 197 204 60 154 111 b 533 368 154 281 204 354 l 533 290 b 306 60 533 156 446 60 z m 624 413 b 853 653 642 561 729 653 b 1051 413 985 653 1056 549 z "},"œ":{"ha":1289,"x_min":0,"x_max":0,"o":"m 389 725 b 74 358 188 725 74 563 b 389 -11 74 138 193 -11 b 653 172 515 -11 607 64 b 949 -11 697 61 796 -11 b 1199 72 1051 -11 1129 19 l 1163 142 b 949 64 1097 93 1033 64 b 697 344 763 64 699 196 l 1213 344 b 1217 410 1215 376 1217 390 b 932 725 1217 593 1117 725 b 657 533 801 725 704 651 b 389 725 613 651 517 725 z m 929 653 b 1128 413 1061 653 1132 549 l 700 413 b 929 653 718 561 806 653 z m 388 650 b 611 358 547 650 611 513 b 388 64 611 197 544 64 b 164 358 228 64 164 201 b 388 650 164 519 231 650 z "},"´":{"ha":569,"x_min":0,"x_max":0,"o":"m 393 1038 l 229 864 l 229 835 l 272 835 l 485 1004 l 485 1038 z "},"`":{"ha":569,"x_min":0,"x_max":0,"o":"m 82 1038 l 82 1004 l 294 835 l 338 835 l 338 864 l 174 1038 z "},"ˆ":{"ha":569,"x_min":0,"x_max":0,"o":"m 249 1038 l 108 860 l 108 835 l 149 835 l 281 968 l 288 968 l 419 835 l 460 835 l 460 860 l 321 1038 z "},"¨":{"ha":569,"x_min":0,"x_max":0,"o":"m 93 981 l 93 863 l 186 863 l 186 981 z m 383 981 l 383 863 l 478 863 l 478 981 z "},"˜":{"ha":569,"x_min":0,"x_max":0,"o":"m 54 897 l 103 863 l 139 899 b 194 931 164 922 178 931 b 242 904 210 931 225 919 l 269 878 b 367 826 310 838 333 826 b 469 881 396 826 425 836 l 518 929 l 469 963 l 433 926 b 378 896 408 903 394 896 b 331 922 363 896 347 906 l 303 947 b 206 999 263 988 239 999 b 103 944 176 999 147 989 z "},"˚":{"ha":569,"x_min":0,"x_max":0,"o":"m 132 974 b 285 826 132 892 200 826 b 438 974 371 826 438 892 b 285 1121 438 1054 371 1121 b 132 974 200 1121 132 1054 z m 183 974 b 285 1075 183 1028 229 1075 b 386 974 340 1075 386 1028 b 285 874 386 918 340 874 b 183 974 229 874 183 918 z "},"¸":{"ha":569,"x_min":0,"x_max":0,"o":"m 249 4 l 249 -51 b 264 -83 249 -64 256 -76 l 303 -121 b 338 -179 321 -137 338 -151 b 263 -237 338 -224 300 -237 b 171 -215 233 -237 189 -229 l 157 -276 b 263 -306 182 -297 221 -306 b 414 -183 356 -306 414 -260 b 369 -83 414 -135 389 -103 l 328 -40 b 317 -19 321 -35 317 -26 l 317 4 z "},"˘":{"ha":569,"x_min":0,"x_max":0,"o":"m 97 1038 l 97 1006 b 285 824 97 904 161 824 b 474 1006 410 824 474 908 l 474 1038 l 419 1038 l 419 1019 b 285 888 419 954 385 888 b 150 1019 185 888 150 944 l 150 1038 z "},"ˇ":{"ha":569,"x_min":0,"x_max":0,"o":"m 321 835 l 460 1011 l 460 1038 l 419 1038 l 288 903 l 281 903 l 149 1038 l 108 1038 l 108 1011 l 249 835 z "},"˙":{"ha":569,"x_min":0,"x_max":0,"o":"m 235 981 l 235 854 l 335 854 l 335 981 z "},"˝":{"ha":569,"x_min":0,"x_max":0,"o":"m 231 1038 l 150 864 l 150 835 l 192 835 l 308 1004 l 308 1038 z m 453 1038 l 360 864 l 360 835 l 401 835 l 529 1004 l 529 1038 z "},"¯":{"ha":569,"x_min":0,"x_max":0,"o":"m 111 944 l 111 872 l 458 872 l 458 944 z "},"˛":{"ha":569,"x_min":0,"x_max":0,"o":"m 335 4 b 251 -62 303 -24 286 -35 b 192 -178 218 -93 192 -125 b 343 -306 192 -258 250 -306 b 444 -281 383 -306 421 -297 l 432 -218 b 343 -237 414 -229 372 -237 b 268 -174 306 -237 268 -222 b 317 -99 268 -143 283 -125 l 424 0 l 424 4 z "},"ß":{"ha":758,"x_min":0,"x_max":0,"o":"m 115 0 l 203 0 l 203 732 b 369 958 203 869 239 958 b 543 783 497 958 543 874 b 476 633 543 708 513 671 b 422 543 440 597 422 576 b 519 406 422 501 451 472 b 632 199 567 358 632 308 b 489 58 632 96 565 58 b 375 71 444 58 406 67 l 375 0 b 490 -12 396 -4 442 -12 b 718 210 613 -12 718 58 b 582 461 718 338 650 396 b 504 550 531 511 504 536 b 538 592 504 557 514 569 b 631 796 581 633 631 700 b 368 1033 631 926 536 1033 b 115 751 217 1033 115 947 z "},"ﬁ":{"ha":719,"x_min":0,"x_max":0,"o":"m 386 1024 b 304 1036 375 1031 349 1036 b 131 844 193 1036 131 953 l 131 714 l 13 714 l 13 646 l 131 646 l 131 0 l 218 0 l 218 646 l 385 646 l 385 714 l 218 714 l 218 849 b 314 961 218 924 246 961 b 374 954 333 961 360 958 z m 500 1022 l 500 896 l 601 896 l 601 1022 z m 507 714 l 507 0 l 594 0 l 594 714 z "},"ﬂ":{"ha":719,"x_min":0,"x_max":0,"o":"m 386 1024 b 304 1036 375 1031 349 1036 b 131 844 193 1036 131 953 l 131 714 l 13 714 l 13 646 l 131 646 l 131 0 l 218 0 l 218 646 l 385 646 l 385 714 l 218 714 l 218 849 b 314 961 218 924 246 961 b 374 954 333 961 360 958 z m 507 1022 l 507 0 l 594 0 l 594 1022 z "},"ª":{"ha":586,"x_min":0,"x_max":0,"o":"m 229 428 b 421 529 308 428 378 463 b 446 438 424 485 439 451 l 524 438 b 494 575 511 460 494 504 l 494 803 b 296 999 494 946 422 999 b 81 939 192 999 114 964 l 110 883 b 293 935 160 910 222 935 b 417 808 381 935 417 896 l 417 767 b 56 586 139 764 56 693 b 229 428 56 488 124 428 z m 244 489 b 132 588 174 489 132 526 b 417 721 132 661 190 710 l 417 629 b 244 489 417 561 351 489 z "},"º":{"ha":617,"x_min":0,"x_max":0,"o":"m 310 999 b 63 715 151 999 63 874 b 310 428 63 542 157 428 b 554 715 467 428 554 558 b 310 999 554 883 460 999 z m 308 933 b 475 715 429 933 475 831 b 308 494 475 594 426 494 b 142 715 188 494 142 597 b 308 933 142 836 190 933 z "},"ⁿ":{"ha":622,"x_min":0,"x_max":0,"o":"m 533 438 l 533 793 b 483 946 533 864 517 913 b 347 999 453 979 407 999 b 172 894 276 999 215 972 l 163 989 l 90 989 l 101 892 l 101 438 l 178 438 l 178 808 b 325 933 178 864 232 933 b 424 899 371 933 403 919 b 456 804 447 874 456 842 l 456 438 z "}," ":{"ha":318,"x_min":0,"x_max":0,"o":""}," ":{"ha":53,"x_min":0,"x_max":0,"o":""}}}
